<svg width="30" height="30" fill="none" xmlns="http://www.w3.org/2000/svg"><g clip-path="url(#a)"><path d="M29.303 0 16.43 10.16l2.394-5.988L29.303 0Z" fill="#E17726"/><path d="m.727.012 10.45 4.161 2.273 6.066L.727.012Zm23.397 21.595 5.69.116-1.989 7.205-6.942-2.039 3.241-5.282Zm-18.247 0 3.229 5.282-6.93 2.04-1.977-7.206 5.678-.116Z" fill="#E27625"/><path d="m13.14 8.694.233 8.01-6.957-.337 1.979-3.185.025-.03 4.72-4.458Zm3.647-.089 4.792 4.547.025.03 1.979 3.185-6.955.338.159-8.1ZM9.31 21.63l3.798 3.158-4.413 2.273.614-5.43Zm11.381 0 .601 5.43-4.4-2.273 3.799-3.157Z" fill="#E27625"/><path d="m16.99 24.49 4.465 2.307-4.154 2.106.043-1.392-.355-3.02Zm-3.98.001-.341 2.997.028 1.413-4.164-2.104 4.476-2.306Z" fill="#D5BFB2"/><path d="m11.72 17.75 1.167 2.616-3.972-1.242 2.805-1.374Zm6.56 0 2.818 1.375-3.985 1.24 1.166-2.615Z" fill="#233447"/><path d="m9.613 21.604-.642 5.63-3.442-5.507 4.084-.123Zm10.775 0 4.084.123-3.455 5.507-.63-5.63Zm3.297-5.556-2.973 3.232-2.291-1.117-1.097 2.46-.72-4.231 7.08-.344Zm-17.371 0 7.082.344-.72 4.231-1.097-2.46L9.3 19.28l-2.985-3.232Z" fill="#CC6228"/><path d="m6.114 15.385 3.363 3.64.117 3.594-3.48-7.234Zm17.776-.006-3.486 7.246.132-3.6 3.354-3.646Zm-10.658.228.135.909.334 2.263-.215 6.954-1.016-5.586v-.058l.762-4.482Zm3.536-.013.764 4.495v.058l-1.02 5.6-.04-1.4-.159-5.609.455-3.144Z" fill="#E27525"/><path d="m20.834 18.88-.114 3.123-3.547 2.948-.717-.54.803-4.417 3.575-1.113Zm-11.655 0 3.562 1.114.804 4.417-.717.54-3.548-2.948-.101-3.122Z" fill="#F5841F"/><path d="m7.854 26.107 4.539 2.294-.02-.98.38-.355h4.492l.394.354-.03.98 4.51-2.287-2.194 1.934-2.653 1.944h-4.555l-2.652-1.952-2.21-1.932Z" fill="#C0AC9D"/><path d="m16.664 24.185.642.483.376 3.2-.544-.49h-4.275l-.533.5.363-3.21.642-.483h3.33Z" fill="#161616"/><path d="M28.454.281 30 5.226l-.965 5 .687.565-.93.757.699.575-.925.9.568.438-1.508 1.878-6.184-1.92-.053-.03-4.456-4.01L28.454.28Zm-26.907 0 11.521 9.097-4.456 4.01-.053.03-6.184 1.921-1.507-1.878.567-.438-.925-.9.698-.575-.944-.759.713-.565-.975-4.998L1.547.281Z" fill="#763E1A"/><path d="m21.14 12.999 6.552 2.035 2.128 6.998h-5.616l-3.869.052 2.814-5.851-2.01-3.234Zm-12.279 0-2.01 3.234 2.815 5.85-3.868-.051H.193l2.116-6.998 6.552-2.035ZM19.146 4.14l-1.832 5.279-.39 7.133-.148 2.235-.012 5.711h-3.528l-.012-5.7-.149-2.248-.389-7.131-1.832-5.28h8.292Z" fill="#F5841F"/></g><defs><clipPath id="a"><path fill="#fff" d="M0 0h30v30H0z"/></clipPath></defs></svg>