<svg width="30" height="30" fill="none" xmlns="http://www.w3.org/2000/svg"><g clip-path="url(#a)"><path d="M29.851 15c0 8.2-6.65 14.85-14.85 14.85C6.799 29.85.15 23.2.15 15 .15 6.798 6.8.15 15 .15 23.203.15 29.852 6.798 29.852 15ZM23.77 7.734a7.592 7.592 0 0 1-2.418.926 3.81 3.81 0 0 0-6.49 3.473 10.814 10.814 0 0 1-7.85-3.98 3.791 3.791 0 0 0-.515 1.916c0 1.32.672 2.486 1.694 3.168a3.796 3.796 0 0 1-1.726-.476v.048a3.812 3.812 0 0 0 3.056 3.735 3.8 3.8 0 0 1-1.72.066 3.815 3.815 0 0 0 3.558 2.645 7.64 7.64 0 0 1-4.73 1.63c-.307 0-.61-.018-.908-.053a10.776 10.776 0 0 0 5.837 1.71c7.006 0 10.836-5.802 10.836-10.836 0-.164-.002-.33-.01-.493a7.725 7.725 0 0 0 1.899-1.97 7.587 7.587 0 0 1-2.186.599 3.819 3.819 0 0 0 1.673-2.108Z" fill="#7455EB"/></g><defs><clipPath id="a"><path fill="#fff" d="M0 0h30v30H0z"/></clipPath></defs></svg>