<svg width="50" height="50" fill="none" xmlns="http://www.w3.org/2000/svg"><g clip-path="url(#a)" filter="url(#b)"><circle cx="25" cy="25" r="15" fill="#8066FF"/><path d="M31.885 29.877a8.36 8.36 0 0 1-.39.5l-.643-.594c.125-.15.24-.297.351-.452l.682.546Zm2.353.551c-.069.12-.14.23-.21.342l-.108.165-.055.083-.058.083-.696-.532.053-.077.051-.077.1-.152c.064-.103.13-.205.193-.314l.73.48Zm-.219.838.059-.085.056-.085.11-.168c.072-.114.145-.229.217-.352l.722.474c-.078.133-.157.257-.234.38l-.12.182-.06.09-.061.09-.689-.526Zm-.65-3.68c.074-.215.136-.418.195-.63l.824.247c-.035.12-.066.235-.102.349-.034.114-.073.226-.112.343l-.805-.309Zm1.773.949c-.023.064-.049.127-.073.19l-.073.184-.077.184-.082.185-.779-.388.077-.172.07-.17c.025-.057.046-.114.068-.17.022-.058.045-.114.066-.172l.803.329Zm.711 1.243-.778-.387.085-.192.078-.188c.027-.062.05-.125.075-.187.024-.063.05-.125.072-.19l.802.33c-.025.071-.053.14-.08.208a6.118 6.118 0 0 1-.08.203l-.084.201-.09.202Zm-.379-1.39.067-.2.017-.05.015-.048.03-.098c.041-.13.077-.26.114-.393l.828.248c-.042.147-.08.288-.125.428-.042.14-.089.278-.138.422l-.808-.309Zm-1.057-.4c.04-.12.08-.236.115-.353.037-.117.07-.235.104-.359l.828.249c-.037.132-.072.26-.113.387-.038.127-.08.254-.125.386l-.809-.31Zm-1.368.4.066-.151.063-.15.03-.075.03-.076c.02-.052.041-.103.06-.157l.794.325c-.021.06-.044.116-.066.173l-.033.084c-.01.028-.023.055-.034.083l-.068.164-.073.163-.77-.384Zm-1.362 5.37.513.72-.175.134c-.028.023-.057.044-.086.066l-.086.063c-.057.042-.114.084-.172.124l-.173.12-.465-.755.168-.116.16-.116.08-.058.078-.06.158-.122Zm.848-2.424c.16-.194.306-.379.45-.579l.68.545a11.11 11.11 0 0 1-.487.628c-.223-.206-.427-.393-.643-.594Zm.126 1.559.145-.148.07-.072a40.3 40.3 0 0 0 .069-.074l.135-.146.133-.15.633.61-.148.166-.147.159-.073.078-.075.077c-.05.051-.1.104-.152.155l-.59-.655Zm1.897-.878a11.98 11.98 0 0 1-.537.691l-.641-.592c.179-.216.34-.422.499-.642l.679.543Zm-2.465-1.968.68.544c-.144.2-.283.375-.435.56l-.642-.593c.143-.173.272-.337.397-.51Zm-1.067-2.67.05-.115.048-.114c.016-.037.03-.075.045-.113l.022-.057.011-.029.01-.029.792.324a1.928 1.928 0 0 1-.026.07l-.026.066-.026.066-.026.064-.052.126-.055.123-.767-.382Zm2.28-.494-.046.159-.01.038-.013.039-.023.075c-.03.1-.064.198-.097.298l-.803-.308a9.8 9.8 0 0 0 .17-.549l.821.248Zm-2.342-.063-.022.057-.021.055-.044.11-.045.108c-.016.035-.032.07-.047.107l-.772-.385.042-.094.039-.093.037-.094.019-.048a.944.944 0 0 0 .018-.049l.796.326Zm2.09.862-.058.151-.029.074-.03.073-.06.145-.064.145-.774-.386.058-.13.055-.13.027-.066.026-.067.052-.136.797.327Zm-1.61-1.523.015-.06.013-.06c.01-.039.02-.078.027-.118l.025-.12.023-.126.838.165a75.32 75.32 0 0 1-.025.141l-.029.137c-.008.045-.02.09-.03.135a16.136 16.136 0 0 0-.031.133l-.826-.227Zm-.187.614c.026-.079.052-.154.075-.232.025-.076.046-.155.07-.238l.827.248a8.959 8.959 0 0 1-.164.532l-.808-.31Zm.031-1.148-.022.12-.024.117c-.007.038-.017.076-.025.114l-.013.056a1.15 1.15 0 0 1-.014.057l-.826-.227a.886.886 0 0 0 .024-.1c.007-.033.016-.065.022-.099l.02-.1.02-.103.838.165Zm5.51 1.085-.041.222-.045.216c-.014.072-.03.143-.048.215-.017.072-.032.144-.051.217l-.83-.228c.019-.069.033-.137.05-.205l.044-.201.041-.2.038-.202.842.166Zm-4.073 1.735c-.096.2-.19.382-.295.567l-.726-.454a27.053 27.053 0 0 1 .072-.13l.068-.129.064-.127.032-.063.03-.063.755.399Zm-.387.735c-.055.095-.111.183-.167.273l-.087.132-.044.066-.046.067-.69-.528.04-.06c.015-.02.027-.04.04-.06l.08-.12c.05-.08.101-.16.15-.245l.724.476Zm-1.9-1.247c-.04.07-.083.136-.124.202l-.064.098-.033.05-.034.048-.689-.526.03-.044.029-.043.056-.085c.036-.058.072-.114.106-.173l.723.473Zm.651 1.09-.695-.532.036-.051.033-.052.067-.1c.042-.07.086-.137.127-.209l.73.479c-.047.081-.096.157-.144.234l-.075.114c-.013.02-.025.04-.039.058l-.04.058Zm-.102.137a7.55 7.55 0 0 1-.337.434l-.642-.592c.106-.128.204-.25.3-.386l.68.544Zm-.891-.719a6.5 6.5 0 0 1-.289.372l-.634-.586c.09-.11.17-.211.25-.323l.673.537Zm4.493 1.915.052-.091.05-.09.095-.182c.032-.06.062-.121.093-.183l.046-.092.045-.095.761.4c-.135.285-.266.537-.41.79l-.732-.457Zm-3.862-2.967a23.003 23.003 0 0 0-.053.108l-.052.105-.055.102a1.144 1.144 0 0 1-.028.051l-.029.051-.738-.46c.035-.061.065-.12.097-.18l.045-.09.023-.045.022-.047.768.405Zm2.899 2.37.047-.085c.016-.027.03-.055.045-.083l.088-.164.083-.164.04-.082.04-.083.757.399c-.12.252-.239.482-.372.717l-.728-.455Zm.103-.788a10 10 0 0 1-.33.637l-.73-.456c.057-.099.107-.196.158-.292l.073-.144.036-.072.034-.073.76.4Zm-.113-2.22.039-.163.018-.08a1.14 1.14 0 0 0 .017-.08l.033-.159.03-.16.844.166c-.01.061-.022.121-.033.18l-.036.176c-.011.058-.025.116-.038.174l-.042.175-.832-.228Zm-1.887 1.166-.03.063-.03.062c-.022.04-.041.082-.063.122a283.292 283.292 0 0 0-.081.154l-.017.03-.036.063-.737-.46.06-.108.057-.108c.02-.036.037-.073.055-.11l.029-.055.026-.057.767.404Zm-.577-1.683-.033.118c-.01.038-.023.075-.034.112-.022.074-.047.145-.07.218l-.808-.31c.022-.066.044-.128.063-.192.02-.063.037-.127.056-.194l.826.248Zm2.632-.33c.019-.111.03-.22.046-.327l.017-.163.01-.082.006-.084.857.083-.008.09-.01.088c-.005.059-.012.117-.018.176l-.024.18-.013.091-.014.095-.85-.146Zm2.053-.459-.009.102-.01.1-.022.197c-.018.13-.033.261-.055.396l-.851-.147.014-.095c.005-.031.01-.063.013-.094l.025-.183.02-.18.009-.09.008-.09.858.084Zm-3.3 1.015a.864.864 0 0 0 .018-.073l.017-.071c.01-.048.022-.095.031-.142l.03-.14.025-.14.832.164-.03.162-.032.157c-.01.052-.023.103-.034.154a17.445 17.445 0 0 0-.037.155l-.82-.226Zm3.46-.175.016-.105.014-.104.027-.203.022-.2.01-.101.01-.102c.294.03.568.056.851.083l-.01.114-.011.112-.025.219c-.019.144-.036.287-.06.432l-.845-.145Zm-3.516-1.168-.006.072-.008.071-.015.139c-.013.091-.023.181-.038.272l-.842-.146c.014-.082.023-.162.034-.243l.014-.122.006-.062.006-.063.85.082Zm-1.111-.11-.005.06-.007.06-.012.119c-.012.077-.02.155-.034.235l-.842-.146c.013-.069.02-.136.03-.204l.01-.102.006-.052.004-.053.85.083Zm1.312.71c.016-.096.027-.192.04-.287l.016-.144.008-.073.006-.074.853.083-.007.08a99.115 99.115 0 0 1-.025.236l-.022.16c-.006.054-.015.109-.024.165l-.845-.146Zm2.017 1.336c.017-.062.03-.124.044-.185.014-.061.028-.122.04-.182l.038-.181.034-.184.832.163-.038.21-.042.2a5.46 5.46 0 0 1-.043.193c-.015.064-.029.128-.045.191l-.82-.225Zm1.415-1.849.012-.209c.004-.069.006-.137.008-.204l.004-.102.001-.102.003-.208H37l-.002.227-.002.111-.004.11c-.003.074-.005.147-.009.22l-.013.22-.856-.063Zm-1.118-.077.011-.185c.004-.062.005-.123.008-.184l.003-.093.002-.093.002-.192h.855l-.003.207-.001.102-.004.1c-.002.067-.004.134-.008.2l-.012.201-.853-.063Zm-1.116-.088.01-.168.007-.164c0-.028.002-.055.003-.082v-.081l.003-.165h.86l-.002.183-.001.09-.004.089-.006.179-.011.182-.859-.063Zm-2.479-.66-.001.122-.001.06-.002.06-.005.118-.007.119-.857-.063.006-.105.004-.103.002-.052v-.051l.002-.105h.86Zm1.099.56-.858-.063.007-.125.005-.123.002-.061.001-.062.002-.125h.86l-.002.142-.001.07-.003.069-.005.139-.008.14Zm1.142-.56-.002.161v.08l-.004.08-.006.16-.01.167-.852-.064.009-.148.005-.146.003-.072v-.073c.002-.048.002-.097.003-.145h.854Zm-19.787.127c.002.285.016.55.036.824l-.853.072a13.267 13.267 0 0 1-.038-.887l.855-.01Zm2.239-.026c.001.23.013.442.028.66l-.85.072a9.817 9.817 0 0 1-.03-.722l.852-.01Zm.31-2.576c-.014.056-.029.111-.041.166l-.038.161-.034.16c-.01.052-.022.104-.03.157l-.834-.173c.047-.244.096-.468.158-.707l.82.236Zm-1.07-.308a10.62 10.62 0 0 0-.163.726l-.836-.174c.053-.277.109-.532.176-.788l.822.236Zm.885 7.275a2.713 2.713 0 0 1-.076-.167 5.423 5.423 0 0 1-.07-.165l-.069-.164-.066-.17c.273-.114.528-.222.796-.336l.063.16.063.153a42.116 42.116 0 0 0 .13.294l-.771.395Zm-2.013 1.032a3.784 3.784 0 0 1-.047-.104l-.045-.102a7.413 7.413 0 0 1-.088-.202l-.083-.201-.08-.205.8-.338.074.192.078.186a6.465 6.465 0 0 0 .122.28l.044.097-.775.397Zm1.66-1.909-.031-.086-.03-.086-.056-.171c-.035-.114-.071-.227-.103-.345l.823-.258c.03.109.062.21.094.314.016.051.034.102.052.155l.026.079.029.08-.804.319Zm-.472-.607c.034.124.071.24.107.358l.058.173.03.087.03.088-.805.319a46.685 46.685 0 0 0-.035-.096l-.032-.096-.063-.19c-.039-.127-.079-.253-.115-.386l.825-.257Zm-.826 1.12-.806.318-.038-.105-.035-.106-.07-.208c-.043-.14-.086-.279-.126-.424l.825-.258c.037.138.079.269.119.398.02.065.042.128.064.192l.032.096.035.097Zm3.336-14.309c.238-.184.464-.345.702-.503.157.261.3.502.456.76-.235.157-.44.304-.652.468l-.506-.725Zm-4.037 5.474.083-.212.085-.204a6.08 6.08 0 0 1 .087-.201l.044-.1.023-.05.023-.05.768.394-.023.047-.02.048-.043.094c-.027.062-.055.124-.08.187l-.079.188-.075.194-.793-.335Zm3.668-2.34-.123.146-.116.144c-.038.047-.074.095-.11.142-.036.047-.073.094-.107.142l-.665-.544c.04-.056.083-.11.123-.163.04-.053.081-.106.122-.157.042-.05.082-.102.123-.152l.127-.15.626.592Zm5.59 18.605c.275.05.522.082.784.11l-.083.895a3.434 3.434 0 0 1-.109-.012l-.107-.013a7.146 7.146 0 0 1-.211-.027l-.208-.03-.208-.037.143-.886Zm1.109-1.043c.122.008.24.018.357.021l.176.007.178.002-.005.897c-.066 0-.13-.002-.195-.003-.064 0-.128-.004-.191-.006l-.096-.004-.095-.006-.194-.013.065-.895Zm.173-2.344c.097.006.19.014.28.016l.135.005.133.002-.005.9-.154-.001-.15-.006c-.1-.003-.2-.011-.303-.018l.064-.898Zm3.829 3.055c.261-.084.501-.17.745-.269l.305.839c-.274.11-.528.2-.803.289l-.247-.86Zm-9.873-4.969-.631.595-.117-.138-.11-.137a3.623 3.623 0 0 1-.107-.138c-.035-.046-.072-.092-.106-.14.233-.192.45-.37.669-.548.033.047.068.09.1.134l.1.128.1.124.102.12Zm-2.164.936c.04.057.083.11.124.165.041.053.082.107.124.158l.125.156.131.156-.637.602-.145-.173-.136-.17c-.046-.055-.089-.112-.132-.169-.043-.056-.088-.113-.13-.172l.676-.553Zm3.104-3.561-.729.466a8.953 8.953 0 0 1-.259-.486l.758-.41c.074.148.147.284.23.43Zm-2.218 2.835c.037.051.075.1.111.148l.111.142.113.14.118.14-.639.603-.13-.153c-.04-.052-.081-.102-.122-.153-.041-.05-.08-.103-.12-.154l-.12-.158.678-.555Zm-2.004-1.108c.129.261.254.493.385.722l-.728.465a13.68 13.68 0 0 1-.414-.777l.758-.41Zm.615.577c-.138-.24-.256-.463-.374-.702l.76-.412c.114.232.226.44.345.647l-.731.467Zm2.379-2.197c.086.176.174.338.27.506l-.734.47a10.07 10.07 0 0 1-.3-.563l.764-.413Zm2.22 6.584.373-.817c.11.053.213.105.32.153.105.05.213.095.328.144l-.317.844c-.247-.104-.47-.207-.704-.324Zm1.692-4.065-.386.8-.12-.067-.059-.032-.057-.034-.115-.068-.115-.071.439-.768.104.065.103.06.051.03.052.028c.034.02.068.04.103.057Zm-1.807 4.314c.245.123.474.228.722.332l-.316.842c-.135-.058-.265-.113-.393-.173a11.21 11.21 0 0 1-.386-.185l.373-.816Zm1.23-1.016c-.109-.047-.213-.09-.316-.139a9.896 9.896 0 0 1-.316-.152l.373-.817c.196.098.379.182.575.265l-.317.843Zm5.825 1.933.198-.044.096-.023.095-.024c.063-.017.126-.032.188-.05l.189-.053.231.872-.21.06c-.069.02-.136.036-.204.053-.034.01-.068.018-.101.026l-.102.024-.208.047-.172-.888Zm-8.598-12.191c.01-.082.016-.161.028-.238l.007-.058a1.09 1.09 0 0 1 .009-.058l.018-.115.846.156-.016.102c-.006.033-.009.067-.014.1-.01.066-.015.133-.024.204l-.854-.093Zm.125-1.77-.021.06-.02.059-.039.116c-.023.078-.049.155-.07.237l-.823-.257c.024-.092.052-.18.08-.267.013-.044.028-.087.043-.131l.022-.067.025-.068.803.319Zm-2.53.846-.026.165c-.009.055-.015.109-.022.163-.016.107-.026.215-.038.327l-.853-.093c.014-.123.026-.243.043-.362l.011-.089.013-.088.028-.179.844.156ZM14.57 20.25l-.035.1-.034.098c-.021.066-.044.13-.064.195-.04.13-.081.26-.118.395l-.824-.257c.041-.15.086-.291.13-.431.021-.07.045-.139.068-.209l.035-.104.038-.105.804.318Zm-.548 2.099c-.01.071-.022.14-.033.21l-.028.203c-.019.135-.032.269-.047.407l-.853-.093c.017-.155.032-.302.052-.447.01-.073.019-.145.03-.217l.035-.218.844.155Zm2.38 1.085c.012-.108.021-.213.037-.318a53.562 53.562 0 0 0 .022-.159l.025-.162.843.155-.023.148c-.008.048-.013.096-.02.144-.014.095-.022.19-.033.285l-.851-.093Zm-1.387.087c-.019.253-.03.489-.032.74l-.854-.01c.001-.28.015-.54.034-.802l.852.072Zm3.587.78c0-.167.01-.318.02-.477l.85.073c-.01.147-.018.278-.018.414l-.852-.01Zm-.241-.499c-.013.174-.021.33-.022.497l-.855-.01c.001-.194.01-.371.024-.56l.853.073Zm-1.835-1.198c.041-.218.085-.42.14-.63l.822.236c-.051.193-.09.378-.127.568l-.835-.174Zm-1.647-5.023.116-.187.058-.091.059-.09c.039-.06.078-.12.119-.18l.125-.18c.235.182.46.358.692.54l-.118.171c-.039.056-.075.113-.112.169l-.055.083-.053.084-.105.17c-.25-.17-.482-.325-.726-.49Zm1.89 1.273c.03-.052.063-.102.095-.153l.047-.075.048-.073.097-.147.102-.146.69.539-.095.137-.09.135-.044.066-.042.068-.085.136-.724-.487Zm2.431.052-.094.112-.09.112-.087.112c-.029.038-.058.075-.085.114l-.67-.546c.032-.045.065-.087.098-.129.032-.042.063-.084.097-.125l.099-.123.102-.122.63.595Zm.747 1.345.072-.095a2.46 2.46 0 0 1 .072-.092l.072-.09.075-.089.634.599-.067.078a27.33 27.33 0 0 0-.063.08c-.021.025-.041.052-.061.078-.02.027-.042.053-.061.081l-.673-.55Zm-1.87.387-.764-.413c.097-.198.194-.378.298-.56.256.162.49.313.734.468-.097.171-.182.33-.268.505Zm-.055.788.052-.132.052-.127c.017-.042.036-.083.055-.125l.027-.062.014-.031.015-.031.773.396-.026.057-.025.056-.048.11-.046.112-.044.115-.799-.338Zm1.282-.123c.07-.142.14-.273.222-.417l.728.466c-.07.123-.132.238-.192.361l-.758-.41Zm-3.32-1.545c-.008.014-.014.029-.021.043l-.02.044-.038.087a5.57 5.57 0 0 0-.075.172l-.07.172-.069.175-.788-.333.076-.195.078-.188c.025-.062.053-.123.08-.184.027-.061.054-.123.083-.185l.763.392Zm.998 1.23.059-.152.061-.147c.02-.05.042-.097.063-.146.022-.048.042-.097.066-.145l.77.395c-.021.044-.04.089-.06.133l-.056.13-.055.133-.053.136-.795-.337Zm-.554-2.082c-.127.22-.238.43-.348.653l-.759-.41c.126-.256.245-.478.377-.71l.73.467Zm2.44 3.55c.02-.079.046-.154.068-.229l.037-.111.019-.056.02-.055.798.316-.017.048-.016.049-.032.095c-.02.065-.041.13-.06.2-.281-.089-.544-.17-.818-.256Zm-.805 7.333-.092-.133c-.03-.044-.058-.089-.088-.132l-.043-.066-.042-.067c-.028-.045-.057-.09-.084-.136l.716-.48.079.126.039.062.039.06.078.117.08.116-.681.533Zm-.905.703-.104-.149-.097-.147-.049-.074c-.015-.024-.03-.05-.047-.074l-.094-.152.724-.487.087.14.043.068.044.067c.03.044.058.09.089.134l.094.135-.69.539Zm2.702-2.104a7.332 7.332 0 0 1-.258-.393l.725-.487.054.087.027.042.027.042c.019.027.036.056.056.084l.06.085-.691.54Zm-.329-.52a7.783 7.783 0 0 1-.223-.42l.753-.408c.064.13.126.245.194.365l-.724.463Zm.357 2.31-.05-.05-.024-.023-.024-.025-.095-.097-.092-.099-.046-.05-.045-.05.623-.615c.114.128.222.241.334.35l-.58.659Zm-1.32.267-.103-.124-.1-.123-.095-.123c-.032-.042-.064-.083-.095-.126l.67-.547c.028.04.059.078.088.116.03.038.058.077.088.113l.088.11.09.108-.63.595Zm.836-.787-.09-.106-.085-.107c-.03-.035-.056-.071-.084-.107-.027-.037-.056-.072-.083-.11l.678-.554c.024.034.05.065.074.098.024.031.048.064.074.094l.075.095c.027.03.053.062.08.094l-.639.604Zm-3.015-4.538a9.429 9.429 0 0 1-.028-.647l.854-.009c0 .207.011.393.025.584l-.851.072Zm1.851 2.717-.015-.033-.015-.032-.028-.065a2.348 2.348 0 0 1-.055-.128l-.053-.127-.05-.13.793-.335.046.119.048.114c.015.037.032.074.048.11l.025.057.012.028.013.028-.769.394Zm-2.854-1.68-.03-.185-.024-.179c-.017-.118-.028-.235-.041-.356l.85-.092c.012.115.023.225.038.334.008.054.014.108.023.161l.025.162-.841.154Zm-.36-.69c.014.13.027.256.044.378l.012.092.006.045.007.046.03.183-.841.155-.032-.203a3.147 3.147 0 0 1-.014-.1l-.014-.099c-.019-.132-.032-.265-.047-.404l.849-.092Zm1.643 1.309a9.093 9.093 0 0 1-.14-.628l.82-.17c.04.203.08.39.127.566l-.807.232Zm1.949-1.847a6.953 6.953 0 0 1-.02-.48l.858-.009c0 .144.008.277.018.417l-.856.072Zm.396 1.814-.02-.058-.02-.057c-.012-.038-.026-.075-.037-.112l-.034-.111a1.19 1.19 0 0 1-.017-.056l-.016-.057.81-.252c.018.07.04.137.06.202l.031.095.016.047.017.047-.79.312Zm-1.25-.278a7.85 7.85 0 0 1-.122-.544l.82-.17c.033.168.066.322.109.482l-.807.232Zm-.225.246c.026.096.055.187.083.279l.046.136.022.069.026.068-.8.317a70.294 70.294 0 0 0-.055-.157l-.05-.153-.047-.152-.012-.037-.01-.038-.022-.077.819-.255Zm-2.37-.28c.047.249.098.484.164.735l-.818.235a11.566 11.566 0 0 1-.179-.797l.832-.173Zm3.658-.272a6.644 6.644 0 0 1-.104-.462l.838-.175c.027.14.054.267.09.4l-.824.237ZM26.178 13l.195.024.192.028.095.014.096.016c.063.012.128.022.192.035l-.152.885c-.06-.012-.12-.021-.178-.032a51.75 51.75 0 0 1-.088-.015l-.088-.013a61.85 61.85 0 0 0-.177-.026l-.179-.021.092-.895Zm1.659 4.055c.086.036.167.075.247.111l.118.058.059.029.058.03-.377.804-.054-.029-.054-.026-.105-.052c-.071-.032-.14-.065-.214-.095l.322-.83Zm-.981.88c.15.049.29.098.43.155l-.305.836a4.934 4.934 0 0 0-.371-.134l.246-.856Zm1.834-3.07c.11.046.213.095.316.142l.153.075.078.038.077.04-.383.817-.071-.037-.071-.035-.14-.068c-.094-.043-.187-.088-.286-.129l.328-.843Zm-3.544.422.079.001.076.003.151.007.15.01.076.005.076.007-.073.895a86.29 86.29 0 0 1-.07-.006c-.023-.003-.046-.003-.07-.005l-.136-.01a67.621 67.621 0 0 0-.137-.005l-.068-.003h-.068l.014-.899Zm-.044 2.362a295.56 295.56 0 0 1 .119.003l.114.005.113.007.056.004.056.005-.073.89-.05-.006-.05-.003-.1-.007-.098-.003-.05-.003h-.05l.014-.892Zm-.757-2.335c.107-.007.207-.015.308-.018.05-.001.1-.005.15-.005l.153-.002.004.886-.144.002-.14.005-.068.003c-.023 0-.045.003-.067.004l-.133.009-.063-.884Zm2.164 1.319.133.03.065.015.065.017c.042.011.085.02.128.033l.129.037-.227.854-.114-.033-.114-.03-.058-.014-.057-.014-.118-.026.168-.87Zm4.146 2.53c.12.145.227.28.336.433l-.685.547a6.729 6.729 0 0 0-.297-.383l.646-.597Zm2.248-.812.05.074.05.074.097.148c.062.099.125.198.186.303l-.73.48c-.057-.097-.115-.187-.17-.277l-.089-.134-.044-.067-.048-.068.698-.533Zm2.947.63.091.206.085.203.081.204.04.103.02.052.02.052-.797.326-.018-.05-.02-.05-.037-.098a6.691 6.691 0 0 0-.076-.191l-.079-.188-.082-.185.772-.384Zm-4.96-4.218.166.115.16.115c.027.02.053.04.08.058l.077.06c.052.04.104.079.155.12l-.508.711c-.05-.04-.1-.078-.15-.116l-.072-.055-.073-.054-.146-.105-.148-.102.46-.747Zm-.552 2.462c.165.138.312.269.466.415l-.576.67a8.954 8.954 0 0 0-.42-.375l.53-.71Zm-11.984-.74-.571-.678c.097-.091.193-.175.288-.26l.147-.125c.05-.043.1-.084.153-.126l.526.719-.073.058-.07.059-.136.116c-.089.078-.177.155-.264.238Zm1.665 1.977c.07-.065.138-.124.205-.184.069-.058.135-.116.205-.171l.519.71c-.065.05-.123.103-.184.153-.059.053-.12.105-.18.163l-.565-.67Zm-.127-1.415c.171-.133.334-.248.507-.363l.457.764c-.159.106-.306.21-.456.327l-.508-.727Zm1.817 1.551.097-.06.098-.058.049-.029.05-.027c.034-.019.067-.039.103-.057l.39.807-.089.049a20.62 20.62 0 0 1-.043.024l-.042.025-.085.05-.085.053-.444-.777Zm-2.139-5.48.389.805c-.061.032-.12.066-.179.098l-.086.048-.085.05-.168.099-.165.102-.44-.773.187-.117.184-.108c.06-.036.12-.07.181-.103.06-.034.12-.068.182-.1Zm-.057 5.856a7.38 7.38 0 0 1 .38-.399l.58.659a6.556 6.556 0 0 0-.337.353l-.623-.613Zm-1.64-1.616c.162-.182.317-.345.49-.513.2.225.39.442.585.663-.04.04-.079.077-.116.116l-.112.115-.11.117-.054.059-.055.061-.628-.618Zm2.452 2.41.038-.043.039-.042c.026-.027.05-.055.077-.082l.08-.082.02-.021.021-.02.044-.043.59.669c-.024.024-.05.046-.072.07l-.069.07-.068.074-.034.036-.034.039-.632-.625Zm-1.262-.233c.028-.04.057-.076.085-.113.029-.037.056-.074.086-.11l.086-.107.09-.106.629.594-.08.096-.078.096c-.026.031-.05.064-.075.096-.025.033-.05.065-.075.1l-.668-.546Zm2.161-5.887c.063-.025.125-.047.187-.07l.091-.034.092-.032.182-.062.185-.058.236.854-.179.056-.17.058c-.057.019-.112.04-.167.06-.054.02-.11.04-.164.062l-.293-.834Zm2.051 3.96-.222-.875a13.846 13.846 0 0 0 .13-.035l.127-.032c.085-.02.17-.04.26-.057l.162.888c-.08.015-.155.034-.23.05l-.113.03a24.09 24.09 0 0 0-.114.03Zm.078-3.352a9.24 9.24 0 0 1 .69-.098l.082.892a2.09 2.09 0 0 0-.16.018l-.158.02a97.39 97.39 0 0 0-.155.024l-.156.027-.143-.883ZM22 15.846l.146-.054.072-.027.072-.024.143-.05.148-.046.241.874-.132.04-.129.045-.065.022-.064.024c-.043.017-.088.032-.132.05l-.3-.853Zm1.342 2.029.056-.016.056-.015.11-.028c.073-.016.145-.034.22-.048l.16.878c-.07.012-.133.029-.197.043l-.093.024-.046.011-.046.014-.22-.863Zm-2.561-2.758c.107-.052.21-.104.314-.15.103-.05.208-.093.315-.139l.316.842c-.098.042-.194.082-.287.126-.095.043-.188.09-.286.137l-.372-.816Zm-.488-1.063c.237-.119.461-.222.706-.325l.314.836c-.23.096-.438.193-.65.299-.13-.281-.246-.537-.37-.81Zm1.938 4.251a6.95 6.95 0 0 1 .413-.19l.314.833c-.127.054-.24.106-.358.165l-.369-.808Zm-9.053 8.256-.035-.224-.03-.22c-.02-.145-.035-.29-.051-.44l.856-.092c.015.142.029.278.048.413.009.068.017.135.028.203.01.067.02.136.032.205l-.848.155Zm14.509 5.204c-.174.07-.336.128-.501.18l-.248-.858c.156-.05.296-.099.444-.16l.305.838Zm-.404-1.095-.055.022a49 49 0 0 1-.16.06c-.034.013-.069.023-.103.035-.034.012-.068.024-.103.034l-.25-.867c.032-.009.062-.02.092-.03l.09-.03.089-.034a.81.81 0 0 0 .046-.018l.046-.019.308.847Zm.232 2.411-.25-.864c.185-.06.349-.118.508-.183l.306.844c-.1.04-.194.075-.287.11l-.138.047a3.23 3.23 0 0 1-.139.046Zm-.792-2.207-.107.031-.105.027-.054.014-.055.013-.114.026-.172-.888.098-.022.047-.011.047-.012c.03-.009.062-.016.092-.024.03-.01.062-.018.092-.027l.231.873Zm1.762 3.105a8.97 8.97 0 0 1-.648.233l-.25-.87c.206-.067.395-.133.59-.213l.308.85Zm-1.463-1.98-.131.038-.128.033-.063.016-.063.014-.127.03-.172-.889c.04-.008.077-.017.115-.026l.056-.013.056-.014.112-.03c.037-.01.075-.02.114-.032.08.308.155.587.23.874Zm1.866 3.068c-.25.1-.485.184-.736.265l-.246-.855c.238-.077.455-.154.678-.245l.303.835Zm-.563-3.591-.06.031-.06.03-.118.058c-.08.036-.161.075-.247.11l-.323-.83c.077-.032.148-.066.22-.099l.105-.051.053-.026.052-.028.378.805Zm.613 1.306.378.806-.08.042-.08.04-.157.076c-.105.048-.207.096-.313.14-.113-.292-.216-.56-.323-.832.102-.042.197-.088.291-.131l.142-.069.07-.035.072-.037Zm-1.108-2.358-.051.027-.051.025-.101.05c-.068.03-.136.063-.208.093l-.323-.83c.064-.026.124-.056.183-.082l.087-.043.044-.021.043-.023.377.804Zm2.474 5.284-.098.05-.096.048-.19.093c-.128.059-.255.118-.388.174l-.323-.832c.127-.053.248-.11.367-.165l.176-.086.087-.043.087-.046.378.807Zm-1.487-3.178-.071.037-.07.035c-.047.022-.093.046-.139.067a8.32 8.32 0 0 1-.275.124l-.324-.833c.088-.036.17-.076.254-.113l.123-.06.062-.031.061-.032.379.806ZM26.15 31a2.525 2.525 0 0 1-.115.02l-.056.01-.056.008-.112.017-.112.013-.091-.887.1-.012.096-.015.049-.006.048-.01.097-.016.152.878Zm.99 5.798c-.073.014-.145.026-.215.038l-.106.018-.104.016-.206.03-.206.025-.092-.892.198-.024.193-.028.096-.014.096-.017.195-.034.151.882Zm-1.053-1.935.178-.022.175-.025.087-.013.087-.015.175-.031.152.885-.193.034-.095.016-.094.014c-.063.01-.125.02-.189.028l-.19.023c-.032-.304-.06-.587-.093-.894Zm-.94-1.118h.081l.08-.004.156-.006.156-.01.078-.006.08-.008.073.894-.09.009-.088.006-.172.011-.17.007-.085.004h-.085l-.014-.897Zm2.784 1.66-.188.053c-.062.018-.124.033-.186.05l-.094.023-.094.022c-.063.014-.127.03-.192.043l-.171-.888.175-.04.086-.02.085-.022c.057-.014.114-.028.172-.044l.175-.05.232.873Zm.857-1.256c.116-.048.224-.1.332-.15l.159-.077.08-.04.078-.04c.131.28.25.535.377.802l-.089.046-.088.044-.175.085c-.116.054-.232.108-.352.159l-.322-.829Zm-1.162.125-.169.048-.166.043-.082.021-.084.02-.17.038-.171-.888.155-.035.076-.018.076-.02.15-.039.154-.043.23.873Zm-1.656-.582.158-.019.154-.023.077-.011.077-.014.155-.027.153.89-.172.03-.084.015-.084.012-.17.025-.172.02c-.03-.304-.06-.59-.092-.898Zm-.122-1.173.14-.017.136-.02.067-.01.067-.011.134-.024.153.891-.153.027a23.712 23.712 0 0 1-.15.024l-.149.022-.152.018-.093-.9Zm.5-.356c-.044.009-.089.016-.133.024l-.065.011-.066.01-.132.019-.134.016-.092-.893.117-.014.116-.017.058-.008.06-.01.12-.022.152.884Zm2.584-1.044c-.039.026-.079.05-.117.074l-.115.07-.115.068-.117.065-.394-.796.106-.059.102-.06c.035-.02.068-.041.101-.062.034-.021.069-.041.102-.064l.447.764Zm.876-.296c.149-.124.284-.245.42-.374.2.23.38.44.576.667-.152.145-.3.276-.466.415l-.53-.708ZM31.88 33.6c.213-.177.403-.346.601-.534l.575.668c-.217.206-.425.39-.647.574l-.529-.708Zm-.903-2.28.578.67c-.176.166-.342.314-.527.469l-.532-.712c.17-.142.323-.277.481-.427Zm-1.865-1.427a7.73 7.73 0 0 0 .36-.32l.577.671a8.633 8.633 0 0 1-.405.36l-.532-.711Zm.186-.52a7.426 7.426 0 0 1-.346.307l-.531-.71c.104-.088.2-.172.3-.267l.577.67Zm3.005 3.49c-.196.186-.382.35-.588.522l-.526-.704c.198-.164.372-.319.543-.481.2.232.382.442.571.663Zm-2.133-2.744-.589-.653.086-.087.042-.043.04-.044.082-.088.081-.092.63.608-.092.105-.093.1-.046.05-.047.048c-.031.032-.062.065-.094.096Zm1.201.406-.106.12-.105.114-.053.057-.054.055c-.037.037-.072.075-.11.112l-.59-.656.1-.103.05-.05.047-.052.095-.103.093-.105.633.611Zm-1.65-1.598-.08.09a46.25 46.25 0 0 1-.08.087l-.038.042-.04.04-.08.082-.589-.653.072-.073.036-.036c.01-.013.022-.025.033-.037l.068-.074.068-.076.63.608Zm3.3 3.181-.137.154-.135.146-.067.072-.068.07c-.046.047-.09.094-.138.14l-.589-.654c.045-.043.087-.088.13-.131.02-.022.041-.044.063-.065l.062-.067.123-.134.124-.14.631.61Zm-1.898-.93c.04-.038.077-.078.114-.116l.056-.057.055-.059.108-.117.107-.121.633.61-.12.135-.119.129-.06.063-.06.063c-.041.042-.081.084-.124.126l-.59-.655Zm-.266 1.415c-.047.038-.095.073-.141.11l-.07.053-.071.052c-.048.034-.094.069-.142.102l-.146.102-.462-.753.138-.095.131-.095.064-.047.063-.048.125-.097.511.716Zm-.75.54c-.05.033-.101.064-.151.095-.05.03-.098.062-.148.09l-.148.088-.152.084-.399-.803.14-.078.136-.08c.046-.027.09-.055.135-.083.044-.028.09-.055.135-.085l.452.772Zm-1.76-3.016c-.033.022-.067.042-.1.063l-.098.06-.098.057-.1.055-.392-.791c.121-.065.23-.133.343-.204l.445.76Zm1.804 4.66c.242-.131.458-.263.685-.409l.448.766c-.064.042-.127.08-.189.12-.062.038-.122.076-.183.111l-.182.107-.184.103-.395-.797Zm-.632-2.653c-.045.03-.09.057-.134.085-.045.028-.088.055-.132.08l-.132.078-.134.075-.392-.79c.171-.093.326-.188.48-.287l.444.76Zm-.908-1.854.1-.07.096-.07.048-.034.046-.036.094-.072.517.723c-.036.03-.073.056-.108.084l-.053.04-.054.04-.108.078c-.037.025-.074.05-.111.077l-.467-.76Zm1.574 1.382c-.042.034-.084.065-.125.097l-.062.048-.063.045c-.041.03-.083.062-.125.091l-.13.09-.463-.756a7.92 7.92 0 0 0 .455-.333l.513.718Zm-1.347-1.881-.093.071-.046.035-.046.034c-.03.022-.06.045-.092.066l-.093.065-.463-.754c.114-.077.217-.155.32-.235.18.25.344.481.513.718Zm2.695 3.76c-.053.044-.107.084-.16.125l-.079.06-.08.058c-.052.038-.104.077-.158.115l-.163.113-.463-.754c.206-.14.396-.28.591-.433l.512.717Zm-11.14-1.457a8.366 8.366 0 0 1-.504-.362l.508-.728c.153.12.3.223.454.326l-.458.764Zm1.199-1.994a6.079 6.079 0 0 1-.373-.268l.506-.726c.109.085.212.157.324.232l-.457.762Zm-2.362 2.582.51-.73c.17.132.333.247.516.37l-.46.766a9.504 9.504 0 0 1-.566-.406Zm-.169 1.635-.454.758a11.631 11.631 0 0 1-.698-.501l.503-.722c.216.168.422.314.65.465Zm.14-.234c-.225-.15-.427-.293-.636-.456l.506-.726c.2.156.387.288.586.42l-.456.762Zm.874.524-.174-.096-.084-.047-.084-.049-.166-.098-.166-.103.442-.773.158.098.155.091.076.045.077.042c.051.029.102.058.155.085l-.39.805Zm1.017-2.103c-.047-.024-.093-.05-.139-.076l-.067-.037a39.03 39.03 0 0 1-.067-.04 3.45 3.45 0 0 1-.131-.077l-.131-.082.44-.77.12.075.12.07.06.036.06.033c.04.022.08.046.122.067l-.387.801Zm1.018-2.099c-.035-.018-.068-.038-.102-.056l-.05-.028-.05-.03-.099-.057-.098-.061.438-.767.086.053.086.05c.014.01.028.018.043.026l.043.024c.03.015.058.033.088.048l-.385.798Zm-1.463-1.064a6.256 6.256 0 0 1-.317-.332l.622-.614c.096.107.183.2.275.288l-.58.658ZM18.5 30.783a8.7 8.7 0 0 0 .444.466l-.581.66-.064-.064a2.66 2.66 0 0 1-.063-.063l-.122-.125-.12-.128-.06-.064-.058-.067.624-.615Zm-.812.804c.168.187.326.354.5.523l-.584.662c-.048-.048-.096-.093-.142-.14a6.016 6.016 0 0 0-.136-.14l-.132-.142a287.437 287.437 0 0 0-.132-.146l.626-.617Zm-.824.812c.189.212.368.4.558.584l-.577.656c-.053-.053-.107-.104-.157-.156l-.151-.155-.147-.157a699.604 699.604 0 0 0-.146-.16l.62-.612Zm2.234-1.015c.08.076.158.144.237.214l.12.103.128.105-.524.717c-.047-.038-.094-.076-.139-.115l-.134-.114c-.087-.077-.174-.152-.258-.233l.57-.677Zm.638.208-.062-.05-.06-.05-.118-.1c-.077-.069-.154-.136-.231-.21l.57-.676c.071.067.142.129.212.19.07.06.14.121.213.179l-.524.717Zm-2.048 2.796-.087-.07-.084-.07-.164-.14c-.107-.095-.212-.188-.318-.287l.57-.675c.102.097.203.185.302.273l.15.128c.026.02.05.043.077.063l.077.063-.523.715Zm3.413-4.664-.046-.037-.044-.038-.088-.074c-.056-.051-.114-.1-.171-.155l.569-.675c.05.049.1.092.15.137.05.042.1.086.153.127l-.523.715Zm-.518-.1c.06.058.121.11.18.163.06.05.12.103.183.152l-.52.712-.055-.043-.053-.045-.103-.088c-.067-.06-.134-.117-.198-.179l.566-.672Zm1.24 3.212a9.23 9.23 0 0 1-.563-.259l.37-.81c.172.087.336.162.507.234l-.314.835Zm3.136-.547c-.046 0-.09 0-.135-.002-.045 0-.09-.003-.133-.004-.089-.003-.176-.01-.267-.016l.064-.896c.082.005.161.012.24.014.039.001.078.004.117.004l.118.002-.004.898Zm-.018 2.357-.175-.003c-.058-.001-.114-.004-.17-.006l-.086-.004c-.028 0-.056-.003-.085-.005l-.172-.011.065-.897c.111.007.216.016.32.019l.154.005.154.002-.005.9Zm-.791 1.429c.136.009.268.02.399.023.065.003.13.006.196.007l.197.003-.004.892-.218-.003-.213-.008-.105-.004-.105-.006-.211-.015.064-.89Zm.002-2.649a1.794 1.794 0 0 1-.155-.017 3.492 3.492 0 0 1-.152-.02l-.15-.022-.152-.026.143-.884c.188.035.367.058.549.078l-.083.892Zm.218-2.346a30.638 30.638 0 0 1-.115-.013c-.038-.005-.075-.009-.112-.015l-.112-.016-.112-.02.143-.882c.132.025.258.04.39.055l-.082.891Zm-.492.216c.161.03.311.048.467.065-.03.311-.055.592-.083.893a6.88 6.88 0 0 1-.527-.074l.143-.884Zm1.232.088h.06l.06-.003.116-.005.117-.008.058-.004.06-.005.073.9-.069.007a45.46 45.46 0 0 0-.067.005l-.132.008-.13.005-.066.003h-.066l-.014-.903Zm-1.18 4.386c-.067-.006-.132-.015-.197-.022-.064-.008-.127-.015-.19-.025a93.33 93.33 0 0 1-.187-.028l-.188-.032.143-.887c.248.046.475.075.702.1l-.083.894Zm2.113 1.183-.11.01a1.925 1.925 0 0 1-.107.008l-.211.014-.209.009-.104.003-.104.002-.014-.9h.1l.1-.005.195-.008.194-.012.097-.008.099-.009.074.896Zm-.293-3.51-.077.007-.076.005-.15.01a56.125 56.125 0 0 1-.23.01h-.078l-.014-.898a345.675 345.675 0 0 0 .143-.004l.14-.005.135-.01.067-.004.067-.007.073.896Zm-.189-2.356-.058.006-.058.003-.113.008-.113.004a10.63 10.63 0 0 1-.113.003l-.014-.902h.05l.05-.002.099-.004.097-.007a28.643 28.643 0 0 1 .099-.008l.074.899Zm-2.254 2.492-.162.884c-.117-.022-.228-.05-.338-.074a98.748 98.748 0 0 0-.247-.063l-.083-.024c.077-.303.149-.585.22-.87l.08.023.078.02.152.038c.1.023.199.047.3.066Zm-1.666 2.92-.208-.065-.202-.069a6.553 6.553 0 0 1-.2-.072l-.1-.037a3.475 3.475 0 0 1-.101-.039l.294-.835.096.036.095.036.095.035.094.032.186.064.188.059-.237.855Zm-.418-1.383.297-.843c.057.023.115.044.171.065l.084.03.084.03.167.057.169.053-.239.862-.184-.057-.18-.062-.091-.031-.091-.034c-.061-.023-.124-.045-.187-.07Zm1.046-.876-.168-.052-.163-.056-.082-.028-.081-.03c-.054-.02-.11-.04-.164-.062l.296-.842c.052.021.103.039.153.058l.075.027c.024.01.05.018.074.026l.148.05.15.047-.238.862Zm-.032-2.502a8.155 8.155 0 0 1-.49-.226l.368-.806c.153.077.291.14.435.2l-.313.832Zm1.042-.59.058.016.057.014.113.029c.074.017.148.035.226.05l-.163.889c-.088-.017-.174-.038-.26-.057l-.126-.032a7.387 7.387 0 0 1-.127-.035l.222-.875Zm-.888.656.298-.85c.038.016.076.029.113.043l.055.02.055.019.11.037.111.035c-.082.298-.16.576-.24.87l-.129-.04-.124-.043-.063-.021-.061-.023c-.041-.016-.083-.03-.125-.047Zm1.39-.808c-.076-.014-.149-.033-.221-.049l-.11-.028-.054-.014-.056-.016.222-.874.05.014.048.012c.032.008.063.017.095.024.062.014.124.03.188.042l-.162.889Zm-1.372 3.573.089.026.087.022.172.044c.114.026.227.053.344.075l-.161.883c-.129-.025-.252-.055-.376-.083l-.186-.047-.094-.024a58.26 58.26 0 0 1-.095-.028l.22-.868Zm.948-1.26c-.104-.019-.202-.043-.3-.065l-.147-.038-.075-.019-.075-.021.223-.877.068.02.067.017.133.034c.089.02.177.042.269.059l-.163.89Zm-.15-2.464a52.979 52.979 0 0 0-.11-.034l-.107-.037a1.497 1.497 0 0 1-.106-.038c-.035-.013-.07-.025-.106-.04l.298-.846c.031.013.063.024.093.035l.046.018.046.015.091.032.095.029-.24.866Z" fill="#DDD9F2"/></g><defs><clipPath id="a"><path fill="#fff" transform="translate(10 10)" d="M0 0h30v30H0z"/></clipPath><filter id="b" x="0" y="0" width="50" height="50" filterUnits="userSpaceOnUse" color-interpolation-filters="sRGB"><feFlood flood-opacity="0" result="BackgroundImageFix"/><feColorMatrix in="SourceAlpha" values="0 0 0 0 0 0 0 0 0 0 0 0 0 0 0 0 0 0 127 0" result="hardAlpha"/><feOffset/><feGaussianBlur stdDeviation="5"/><feComposite in2="hardAlpha" operator="out"/><feColorMatrix values="0 0 0 0 0.08 0 0 0 0 0.0854545 0 0 0 0 0.1 0 0 0 1 0"/><feBlend in2="BackgroundImageFix" result="effect1_dropShadow_136_4409"/><feBlend in="SourceGraphic" in2="effect1_dropShadow_136_4409" result="shape"/></filter></defs></svg>