<svg width="50" height="50" fill="none" xmlns="http://www.w3.org/2000/svg"><path d="M39.344 35.16c-.26.362-.516.687-.812 1.044l-1.34-1.239c.261-.315.501-.619.732-.941l1.42 1.136Zm4.902 1.15c-.144.247-.291.478-.437.71-.074.116-.15.23-.226.345l-.114.173-.12.172-1.451-1.109.11-.16c.037-.053.072-.107.107-.16.07-.107.14-.211.208-.317.134-.214.27-.426.401-.653l1.522.998Zm-.456 1.744c.04-.06.081-.119.122-.177.04-.058.078-.118.117-.176l.23-.352c.15-.237.301-.475.45-.731l1.505.987c-.161.277-.326.535-.487.792l-.248.378-.126.189-.129.186-1.434-1.096Zm-1.354-7.666c.154-.449.283-.871.406-1.315l1.715.516c-.07.25-.136.49-.211.727-.071.237-.152.47-.233.715l-1.677-.643Zm3.693 1.976c-.048.135-.101.265-.151.395-.05.13-.1.258-.154.385l-.16.382-.17.386-1.622-.809.159-.358.147-.355c.05-.117.096-.235.142-.354.045-.119.093-.237.136-.358l1.673.686Zm1.482 2.59-1.62-.807.176-.4.163-.391c.055-.13.105-.26.155-.39s.103-.26.15-.393l1.672.685c-.053.148-.111.292-.166.434-.055.143-.11.284-.169.423l-.175.419c-.06.139-.123.279-.186.42Zm-.79-2.896.14-.417.034-.102.032-.102.063-.204c.086-.27.16-.54.238-.819l1.723.517c-.086.306-.167.6-.259.891-.088.292-.186.58-.287.881l-1.684-.645Zm-2.202-.834c.084-.25.166-.49.24-.735.077-.243.144-.49.217-.747l1.724.518c-.078.275-.15.542-.234.806-.08.266-.17.53-.262.804l-1.685-.646Zm-2.85.832.138-.312.13-.312.065-.157.061-.159c.041-.107.086-.214.125-.326l1.653.677c-.044.123-.092.241-.137.36l-.068.175-.071.172-.143.342-.15.34-1.603-.8Zm-2.839 11.19L40 44.745c-.122.097-.244.189-.364.281l-.179.136-.18.132c-.12.087-.237.175-.358.259l-.361.25-.968-1.574.349-.241c.114-.08.224-.162.334-.242l.166-.121.163-.125c.109-.084.219-.167.328-.254Zm1.767-5.05c.335-.404.639-.79.937-1.206l1.42 1.135a23.1 23.1 0 0 1-1.018 1.309l-1.339-1.237Zm.264 3.247c.104-.102.203-.206.302-.307l.146-.151.143-.153c.094-.102.188-.202.281-.305l.278-.314 1.317 1.271-.307.347a33.26 33.26 0 0 1-.458.494l-.156.161c-.105.107-.209.216-.317.323l-1.23-1.366Zm3.952-1.829c-.362.504-.718.956-1.12 1.44l-1.335-1.233c.373-.45.71-.88 1.04-1.339l1.415 1.132Zm-5.136-4.099 1.415 1.133c-.298.415-.587.781-.905 1.166l-1.337-1.235c.298-.36.567-.701.827-1.064Zm-2.223-5.564.106-.239.098-.236c.034-.078.063-.157.094-.236l.046-.119.024-.06.022-.06 1.647.674a3.722 3.722 0 0 1-.053.144l-.055.14-.053.137-.055.133-.11.262-.113.257-1.598-.797Zm4.748-1.028-.093.33-.023.081-.025.08-.048.157c-.062.21-.133.412-.203.62l-1.673-.641c.134-.391.248-.76.353-1.143l1.712.516Zm-4.878-.131-.044.118-.045.116c-.03.077-.059.153-.091.227l-.093.225-.1.224c-.558-.278-1.065-.532-1.607-.801l.088-.196.08-.195c.028-.064.053-.13.078-.196l.04-.1c.013-.033.026-.066.038-.101l1.656.679Zm4.355 1.795c-.038.109-.081.212-.12.316l-.06.154c-.02.051-.042.101-.063.151l-.126.302-.134.303-1.61-.804.12-.271.113-.273c.019-.045.039-.09.057-.137l.054-.139c.035-.093.074-.186.108-.283l1.661.681Zm-3.354-3.172a2.7 2.7 0 0 0 .03-.125l.029-.124c.019-.082.04-.164.055-.247l.052-.251.048-.26 1.748.342-.054.294-.06.285c-.018.095-.04.187-.062.28l-.032.14c-.01.046-.022.093-.034.14l-1.72-.474Zm-.39 1.28c.055-.166.11-.323.157-.483.052-.16.095-.324.145-.497l1.723.517a18.83 18.83 0 0 1-.341 1.107l-1.684-.644Zm.066-2.392-.046.25-.05.242c-.016.08-.035.159-.054.238l-.027.118c-.009.04-.018.08-.029.119l-1.72-.474c.01-.035.018-.07.026-.104l.023-.104c.016-.069.034-.136.047-.206l.043-.208.039-.215 1.748.344Zm11.478 2.259c-.029.157-.056.311-.086.463-.03.152-.062.301-.093.45-.03.15-.064.298-.099.448-.035.149-.068.3-.108.452l-1.727-.475c.038-.143.068-.286.102-.426.032-.141.065-.28.093-.42l.086-.417.077-.42 1.755.345Zm-8.485 3.614c-.2.419-.395.797-.614 1.183l-1.514-.946.077-.137c.026-.045.05-.09.074-.136l.142-.267c.046-.088.089-.177.133-.264l.066-.131.062-.132 1.574.83Zm-.806 1.533c-.114.197-.233.381-.348.567l-.181.276c-.03.046-.06.093-.092.139l-.096.138-1.44-1.1a4.71 4.71 0 0 0 .087-.125c.029-.041.056-.084.084-.125l.163-.25c.105-.168.212-.335.313-.51l1.51.99Zm-3.96-2.598c-.083.146-.172.282-.257.42l-.134.204c-.023.034-.044.069-.068.103l-.07.102-1.436-1.097.063-.09.06-.09.117-.178c.073-.12.15-.237.22-.36.518.34.994.65 1.505.986Zm1.358 2.269-1.449-1.107.075-.107.07-.107.139-.211c.088-.142.178-.282.265-.433l1.52.997c-.098.17-.2.328-.3.488-.051.08-.104.158-.157.238l-.08.121-.083.12Zm-.212.286c-.231.323-.46.612-.704.906l-1.336-1.235c.22-.266.424-.522.625-.803l1.415 1.132Zm-1.858-1.497c-.201.282-.4.53-.601.774-.47-.434-.89-.823-1.322-1.22.187-.228.357-.44.522-.673l1.4 1.119Zm9.362 3.99.106-.19a7 7 0 0 0 .104-.19l.2-.376c.066-.126.128-.253.193-.381l.096-.194.094-.197 1.586.835a25.691 25.691 0 0 1-.854 1.645l-1.525-.952Zm-8.047-6.182-.053.114c-.02.037-.038.074-.056.111-.038.073-.073.147-.11.218l-.114.214a64.814 64.814 0 0 1-.118.212c-.533-.333-1.024-.64-1.539-.96.073-.126.137-.25.203-.373l.094-.187.048-.095.046-.097 1.6.843Zm6.039 4.937a123.044 123.044 0 0 0 .194-.35l.181-.342c.06-.113.116-.228.173-.341l.085-.17.082-.174 1.578.831a23.257 23.257 0 0 1-.776 1.494l-1.517-.948Zm.216-1.64c-.231.483-.448.902-.688 1.325-.531-.331-1.023-.637-1.521-.949.118-.206.224-.409.33-.608l.15-.3.076-.15.072-.152 1.581.833Zm-.236-4.625c.03-.115.054-.23.081-.34l.039-.168c.013-.055.023-.11.035-.166l.068-.33.061-.335 1.76.346-.068.376-.076.365c-.024.122-.052.242-.08.363-.029.12-.055.243-.087.365l-1.733-.476Zm-3.931 2.428-.062.132-.065.128c-.043.085-.085.171-.129.256l-.135.254-.034.065-.037.064-.073.13-1.536-.959c.041-.076.086-.149.125-.225l.119-.224c.04-.075.076-.152.115-.228l.058-.116.056-.12 1.598.843Zm-1.202-3.505-.07.244c-.02.08-.047.157-.07.233-.045.155-.098.303-.148.455l-1.681-.644c.045-.139.091-.269.13-.402.043-.131.078-.265.118-.404l1.72.518Zm5.482-.687c.04-.233.065-.459.096-.683l.037-.339.019-.171.014-.175c.608.06 1.177.114 1.785.173l-.016.187-.02.184-.04.366-.049.373c-.009.063-.016.128-.026.192l-.031.198-1.769-.305Zm4.279-.958-.019.213-.022.208-.045.411c-.037.272-.07.543-.116.824l-1.773-.305.031-.199.027-.195.05-.381.042-.375.02-.187.016-.188 1.789.174Zm-6.875 2.115c.014-.05.025-.101.037-.151l.035-.15c.023-.1.046-.197.065-.296l.06-.291.054-.292 1.734.341c-.02.115-.041.227-.062.338l-.067.327c-.022.109-.048.215-.072.322a121.398 121.398 0 0 1-.077.322l-1.707-.47Zm7.206-.366.034-.219c.012-.072.02-.144.03-.215l.056-.423.046-.418.022-.21.018-.211 1.776.173-.021.237-.025.233-.05.456c-.04.3-.077.598-.127.9l-1.759-.303Zm-7.323-2.432-.013.15-.016.148c-.011.098-.02.194-.032.29-.026.19-.048.377-.08.566l-1.754-.303c.03-.172.048-.34.072-.507l.028-.255.014-.129.011-.132 1.77.172Zm-2.315-.23-.01.127a119.252 119.252 0 0 1-.041.37c-.023.163-.04.325-.07.49l-1.753-.303c.025-.144.04-.284.06-.424l.023-.213.012-.108.009-.11 1.77.17Zm2.733 1.48c.034-.2.056-.4.084-.598l.033-.3.016-.152.013-.154 1.777.172-.014.166-.018.165-.035.328-.044.332c-.014.113-.033.227-.052.345l-1.76-.304Zm4.203 2.783c.033-.13.061-.26.091-.386.03-.127.06-.253.084-.38l.078-.377.07-.382 1.735.34-.08.436-.087.417c-.027.137-.06.27-.09.404-.032.133-.06.266-.095.398l-1.706-.47Zm2.947-3.85.026-.437c.007-.143.011-.285.016-.426l.008-.212.003-.213.005-.433H50l-.005.473-.004.232-.008.23c-.006.153-.01.305-.018.457-.01.152-.018.305-.027.46l-1.784-.132Zm-2.328-.162.023-.387c.007-.128.01-.255.015-.383l.007-.193c.002-.064.002-.129.003-.194l.005-.4h1.781l-.005.432c-.001.071-.001.142-.004.212l-.007.21c-.005.139-.009.277-.016.416l-.025.419-1.777-.132Zm-2.325-.183.02-.351.014-.342.006-.17.002-.17.004-.342h1.793a1129.234 1129.234 0 0 1-.008.567l-.006.186c-.005.124-.008.248-.014.373l-.023.38-1.788-.131Zm-5.165-1.377-.003.255c-.001.042 0 .084-.002.125l-.005.124c-.003.082-.005.165-.009.247l-.015.248-1.786-.131.014-.22.008-.214.004-.107.001-.108.003-.219h1.79Zm2.288 1.168-1.787-.131.016-.261.01-.256c0-.043.002-.085.004-.128l.002-.129.003-.26h1.792l-.004.295c0 .049 0 .097-.002.146l-.005.145c-.004.096-.006.192-.011.288l-.018.291Zm2.38-1.168c0 .114-.002.226-.003.337l-.002.166-.007.165-.012.336-.021.346-1.776-.131.018-.309.012-.304.006-.15.002-.152.003-.303h1.78Zm-41.222.265c.004.595.032 1.148.074 1.717l-1.777.15A27.533 27.533 0 0 1 0 23.99l1.782-.02Zm4.664-.053c.002.478.026.921.059 1.375l-1.771.15c-.038-.52-.062-.996-.065-1.505l1.777-.02Zm.647-5.368c-.03.118-.062.232-.088.346l-.078.337c-.026.11-.046.221-.07.331-.022.11-.046.219-.065.329l-1.735-.362c.097-.508.198-.974.329-1.47l1.707.49Zm-2.232-.64a22.12 22.12 0 0 0-.338 1.511l-1.742-.363c.11-.576.226-1.107.367-1.64l1.713.492Zm1.845 15.155a5.64 5.64 0 0 1-.08-.175l-.077-.173a11.253 11.253 0 0 1-.148-.342l-.142-.343-.137-.352 1.657-.701.13.334.132.316c.042.105.089.206.134.308l.067.153.07.152-1.606.823Zm-4.193 2.15A7.915 7.915 0 0 1 2.415 35l-.095-.213c-.063-.141-.124-.28-.182-.42l-.174-.42-.166-.427 1.666-.705.156.4.16.388c.054.13.11.258.169.388l.087.197.091.2-1.614.827ZM5.97 31.24l-.065-.181-.06-.18c-.04-.12-.08-.237-.118-.355-.073-.238-.148-.474-.215-.719l1.716-.536c.061.225.13.437.195.652.034.107.071.213.107.323l.055.165.06.167-1.675.664Zm-.983-1.267c.07.259.149.503.224.746.038.12.08.24.12.361l.06.182.067.183-1.679.664-.072-.2-.068-.2c-.044-.133-.088-.264-.13-.395-.082-.264-.165-.527-.241-.804l1.72-.537Zm-1.721 2.334-1.678.664-.08-.221-.073-.22c-.049-.145-.098-.289-.144-.434-.09-.29-.181-.58-.265-.883l1.719-.538c.079.289.165.56.249.83.043.135.088.267.132.4l.068.201.072.2Zm6.951-29.81a24.58 24.58 0 0 1 1.462-1.048l.95 1.585c-.489.326-.918.632-1.358.973l-1.054-1.51Zm-8.41 11.405.172-.442.177-.426c.058-.142.12-.28.181-.419l.093-.208.046-.104.049-.103 1.6.82-.047.098-.044.099-.087.196c-.058.13-.115.258-.169.39l-.163.392-.157.405-1.651-.698Zm7.641-4.876-.257.305-.24.3c-.08.097-.154.197-.23.295-.075.099-.151.195-.223.296L7.112 9.088c.085-.118.173-.229.257-.34.085-.111.168-.22.255-.327l.256-.318.263-.312 1.305 1.234Zm11.647 38.761c.572.104 1.087.17 1.632.23l-.173 1.863a6.812 6.812 0 0 1-.227-.025l-.223-.026c-.148-.018-.294-.035-.44-.058l-.433-.064c-.144-.023-.288-.049-.433-.074l.297-1.846Zm2.309-2.173c.254.016.5.037.744.044.122.004.244.01.367.013l.37.005-.01 1.869-.406-.006c-.134-.002-.266-.01-.399-.014l-.199-.008-.199-.012c-.133-.01-.267-.018-.403-.027l.135-1.864Zm.36-4.884c.203.012.395.029.584.034.095.003.188.009.28.01.093 0 .186.002.278.003l-.01 1.877-.32-.004c-.106-.002-.21-.008-.314-.011-.208-.006-.416-.024-.631-.037l.134-1.872Zm7.977 6.364a21.6 21.6 0 0 0 1.553-.56l.635 1.748c-.57.23-1.1.418-1.673.602l-.515-1.79ZM11.172 36.742l-1.314 1.24-.242-.288-.23-.286c-.077-.093-.15-.19-.224-.287-.073-.096-.149-.192-.221-.293l1.394-1.14c.069.096.141.187.21.279.07.09.138.18.209.266l.207.259.211.25Zm-4.507 1.95c.085.118.173.23.258.342.086.112.17.223.258.33.087.11.174.217.262.326l.272.324-1.328 1.254-.301-.359-.285-.353c-.094-.116-.184-.235-.274-.353-.09-.119-.182-.236-.27-.359l1.408-1.152Zm6.465-7.42-1.518.971c-.2-.35-.374-.678-.538-1.013l1.579-.855c.152.31.304.593.477.898ZM8.51 37.18c.077.106.156.206.233.307.077.1.152.2.231.297l.235.292.245.291-1.331 1.257a32.19 32.19 0 0 0-.27-.32l-.256-.319c-.085-.105-.167-.213-.25-.321-.082-.109-.167-.216-.248-.33l1.412-1.154Zm-4.173-2.31c.267.544.528 1.027.8 1.504l-1.516.969a28.525 28.525 0 0 1-.861-1.619l1.577-.854Zm1.28 1.202c-.286-.5-.534-.965-.778-1.462l1.584-.858c.236.481.47.915.716 1.347l-1.522.973Zm4.957-4.578c.18.367.362.705.561 1.056l-1.528.977c-.228-.4-.429-.776-.624-1.172l1.59-.86ZM15.2 45.212l.777-1.703c.226.11.442.22.664.319.22.104.446.199.684.301l-.66 1.757c-.514-.216-.98-.43-1.465-.674Zm3.523-8.469-.803 1.665c-.086-.044-.167-.093-.25-.137l-.122-.068-.12-.07-.24-.142-.239-.149.914-1.6.218.135.214.127.106.062.107.059c.072.039.142.08.215.118Zm-3.764 8.987c.512.256.988.475 1.505.692l-.66 1.753c-.28-.12-.552-.234-.818-.36-.268-.12-.53-.251-.803-.386l.776-1.7Zm2.561-2.117c-.225-.097-.442-.188-.656-.289-.217-.097-.431-.205-.66-.317l.778-1.702c.408.205.789.379 1.198.551l-.66 1.757Zm12.138 4.029.412-.094c.067-.016.134-.03.2-.047l.198-.05c.13-.034.262-.066.392-.103l.393-.112.482 1.818-.438.125c-.143.039-.284.074-.425.11-.07.019-.14.036-.211.054l-.212.05-.433.098-.358-1.85Zm-17.914-25.4c.02-.17.035-.335.058-.496a125.784 125.784 0 0 1 .034-.24l.037-.24 1.763.325-.033.212c-.012.07-.019.14-.029.208-.02.139-.032.278-.05.425l-1.78-.194Zm.261-3.685-.044.123-.041.122c-.027.082-.055.162-.08.243-.05.162-.103.324-.148.494l-1.715-.536c.052-.192.11-.373.166-.556.029-.091.06-.182.091-.274l.047-.14.05-.14 1.674.664Zm-5.27 1.76-.054.345c-.019.113-.031.226-.047.338-.032.224-.054.45-.08.682l-1.775-.192c.028-.258.052-.508.088-.755l.024-.185a3548.25 3548.25 0 0 0 .085-.557l1.759.324ZM3.27 15.106l-.075.208-.07.206c-.044.136-.09.27-.133.406-.085.27-.17.54-.247.822l-1.716-.536c.086-.312.179-.606.27-.898.046-.145.095-.289.143-.434l.074-.218.078-.219 1.676.663ZM2.128 19.48l-.069.437c-.022.142-.04.284-.058.424-.04.281-.067.56-.098.847l-1.777-.192c.035-.323.065-.63.108-.933.02-.15.039-.301.063-.452l.071-.455 1.76.324Zm4.956 2.261c.026-.226.046-.445.078-.664l.022-.164a4.45 4.45 0 0 1 .024-.166l.053-.338c.618.113 1.17.215 1.756.324l-.048.306c-.017.101-.027.202-.041.301-.03.199-.047.396-.07.594l-1.774-.193Zm-2.89.18a22.968 22.968 0 0 0-.065 1.544l-1.78-.02c.004-.587.032-1.13.072-1.674l1.774.15Zm7.474 1.626c.002-.349.02-.663.043-.993l1.77.15c-.022.307-.037.58-.038.864l-1.775-.021Zm-.502-1.04a15.23 15.23 0 0 0-.045 1.035l-1.781-.02c.002-.404.022-.773.05-1.166l1.776.152Zm-3.823-2.495c.087-.454.178-.874.294-1.313l1.71.492c-.106.402-.188.788-.264 1.183l-1.74-.362ZM3.912 9.545c.081-.133.162-.261.242-.39l.12-.19.123-.186c.082-.124.163-.25.248-.374l.262-.377 1.442 1.126-.248.357c-.08.117-.156.235-.233.35l-.114.174-.11.175-.22.353-1.512-1.018ZM7.848 12.2c.066-.11.133-.215.199-.32l.098-.156c.034-.05.067-.102.1-.153.068-.101.134-.204.203-.305l.212-.305 1.437 1.123-.198.286c-.064.093-.124.188-.186.28l-.091.14-.089.14c-.058.094-.118.188-.176.284L7.848 12.2Zm5.067.107-.196.234-.188.233c-.063.077-.121.156-.181.234-.06.078-.12.155-.178.236l-1.393-1.138c.065-.092.134-.18.201-.268.068-.087.133-.176.203-.26l.206-.257.213-.253 1.313 1.24Zm1.556 2.803c.05-.07.101-.134.15-.2.05-.064.099-.13.15-.191l.15-.188.156-.184 1.32 1.247-.138.164-.132.164c-.044.054-.085.11-.128.165-.042.056-.087.11-.127.169l-1.4-1.146Zm-3.896.806-1.591-.862c.202-.412.404-.787.62-1.167l1.53.978c-.202.355-.38.687-.56 1.05Zm-.114 1.64.107-.274.11-.265c.035-.088.075-.173.113-.26l.057-.129.029-.065.03-.064 1.612.826a256.479 256.479 0 0 0-.106.235c-.034.077-.069.153-.1.23l-.097.232-.092.239-1.663-.704Zm2.67-.254c.146-.297.292-.57.463-.87l1.516.97c-.145.256-.274.497-.4.754l-1.58-.856Zm-6.918-3.22-.043.09-.04.092-.08.18c-.054.12-.106.238-.155.358l-.149.359-.142.364-1.641-.692.158-.407.162-.39c.053-.13.11-.257.167-.385.057-.127.112-.257.173-.385l1.59.816Zm2.08 2.564.124-.317.127-.308a10.2 10.2 0 0 1 .132-.302c.045-.1.088-.203.137-.304l1.605.824c-.045.091-.083.185-.125.275-.04.092-.081.182-.118.274l-.115.276-.11.283-1.657-.701Zm-1.154-4.34c-.263.461-.495.896-.724 1.362l-1.581-.856c.26-.532.51-.995.786-1.477l1.52.972Zm5.083 7.399c.044-.166.096-.323.143-.479l.077-.231.039-.116.042-.116 1.663.66a48.81 48.81 0 0 1-.037.1l-.033.1-.067.2c-.04.134-.085.27-.123.414l-1.704-.532ZM10.547 34.98l-.193-.277c-.062-.092-.122-.184-.182-.276l-.09-.137-.088-.14c-.058-.093-.118-.186-.176-.282l1.493-1.002c.054.091.11.178.164.264l.08.128.083.125c.055.082.107.165.163.245l.167.242-1.421 1.11ZM8.66 36.444l-.215-.31c-.07-.102-.137-.206-.204-.307l-.1-.153-.098-.156c-.065-.105-.132-.209-.197-.317l1.509-1.013c.06.1.12.194.18.29l.09.142.091.14c.062.093.122.187.186.28l.195.282-1.437 1.122Zm5.63-4.384a15.322 15.322 0 0 1-.537-.818l1.51-1.015c.037.062.075.121.112.18l.055.09.058.086c.039.058.075.117.116.175l.123.178-1.438 1.124Zm-.685-1.083c-.17-.297-.32-.579-.466-.876l1.57-.849c.133.27.262.51.404.76l-1.508.965Zm.744 4.812a87.63 87.63 0 0 0-.105-.102l-.051-.05a293.634 293.634 0 0 1-.247-.254c-.065-.067-.127-.136-.191-.205a79.632 79.632 0 0 0-.096-.103l-.095-.108 1.298-1.279c.239.267.462.503.697.73l-1.21 1.371Zm-2.75.556-.216-.257-.206-.256c-.07-.084-.134-.171-.2-.257-.066-.087-.133-.172-.197-.262l1.395-1.14c.06.083.123.162.183.242.061.08.12.16.183.235l.184.23.19.223-1.316 1.242Zm1.741-1.638-.187-.222c-.06-.074-.12-.148-.178-.222-.06-.073-.117-.149-.175-.224-.057-.075-.117-.15-.172-.228l1.412-1.156c.05.071.103.137.154.204.05.067.1.134.154.198l.157.196.166.197-1.33 1.257Zm-6.282-9.454A20.31 20.31 0 0 1 7 23.905l1.779-.02c.002.432.023.82.052 1.217l-1.773.151Zm3.857 5.66-.032-.069-.03-.068-.06-.134c-.04-.09-.079-.177-.115-.266l-.11-.266-.105-.27c.565-.238 1.087-.46 1.654-.698l.096.248.099.236c.031.079.066.155.1.232l.052.116a16.884 16.884 0 0 1 .053.117l-1.602.821ZM4.968 27.41l-.06-.383c-.02-.126-.034-.25-.051-.373-.035-.246-.058-.491-.086-.743l1.77-.191c.026.239.048.469.08.695.016.113.028.225.047.337l.053.336-1.753.322Zm-.75-1.434c.03.27.056.53.092.785l.026.191.013.096.014.094.06.381-1.75.323-.067-.421a6.518 6.518 0 0 1-.03-.208l-.027-.207c-.04-.276-.067-.554-.098-.843.621-.067 1.19-.13 1.768-.191Zm3.424 2.725a18.88 18.88 0 0 1-.293-1.309l1.71-.355c.082.424.167.814.265 1.181l-1.682.483Zm4.06-3.847c-.024-.34-.042-.652-.043-1 .627-.006 1.188-.013 1.789-.02 0 .3.017.578.037.869l-1.784.151Zm.825 3.78-.043-.121-.04-.12c-.026-.08-.054-.156-.077-.234l-.072-.232a2.546 2.546 0 0 1-.034-.116l-.033-.117 1.686-.526c.039.147.084.285.125.42.021.067.045.133.066.199l.033.098.035.098-1.646.65Zm-2.604-.58c-.105-.395-.184-.77-.254-1.133l1.71-.356c.067.35.136.672.225 1.005l-1.681.483Zm-.47.51c.055.2.116.391.175.582.03.095.063.189.094.284l.048.143.052.143-1.666.66-.06-.164-.054-.163c-.035-.108-.072-.213-.105-.32l-.098-.315-.024-.078-.022-.08-.045-.159 1.706-.532Zm-4.938-.582c.1.518.205 1.008.343 1.531l-1.704.49a24.034 24.034 0 0 1-.372-1.661l1.733-.36Zm7.622-.567c-.09-.338-.154-.643-.215-.962l1.745-.364c.056.29.112.555.187.833l-1.717.493ZM27.454 0l.407.05.4.057.198.03.199.034c.132.024.266.046.4.072l-.317 1.844c-.125-.024-.249-.044-.371-.066l-.184-.032-.183-.027-.367-.053-.373-.045.19-1.864Zm3.456 8.448c.18.075.348.155.515.232l.246.12.123.06.12.064-.784 1.674-.113-.06-.112-.055c-.075-.035-.147-.073-.22-.107-.148-.067-.292-.136-.445-.2l.67-1.728Zm-2.043 1.835c.31.1.603.203.894.322l-.633 1.74a10.56 10.56 0 0 0-.774-.279l.513-1.783Zm3.822-6.398c.229.096.443.197.657.296.107.05.212.103.32.156l.16.08.162.084c-.281.6-.535 1.14-.797 1.702l-.15-.078-.147-.073c-.098-.048-.195-.096-.292-.142-.195-.09-.389-.182-.596-.268l.683-1.757Zm-7.384.88.163.002.16.007.314.013.313.02c.052.004.105.007.157.012l.16.015-.154 1.864-.145-.013c-.048-.005-.096-.007-.144-.01l-.286-.02-.284-.011-.142-.006-.142-.002.03-1.871Zm-.091 4.92.124.002.122.005.238.01c.079.004.157.01.235.015.039.003.078.004.117.008l.117.011-.152 1.852-.106-.01-.104-.007-.206-.014-.206-.008-.103-.004-.104-.001.027-1.859Zm-1.578-4.864c.221-.014.432-.031.641-.037.105-.004.209-.01.313-.011l.318-.004.009 1.846-.3.004c-.098.002-.195.007-.29.01l-.144.006c-.047.002-.093.006-.14.01-.093.005-.185.011-.276.018-.048-.665-.09-1.251-.131-1.842Zm4.509 2.747.276.063c.046.01.091.02.136.032l.134.034c.09.024.178.044.267.07.09.025.179.05.27.077l-.474 1.779-.238-.068c-.079-.023-.158-.04-.238-.062l-.119-.03c-.04-.011-.08-.02-.12-.029l-.245-.056.35-1.81Zm8.636 5.272c.249.301.474.584.7.901l-1.426 1.14a14.1 14.1 0 0 0-.62-.798l1.346-1.243Zm4.683-1.692.107.154.102.155c.068.102.135.204.201.307.13.207.261.413.389.632l-1.523 1c-.117-.202-.237-.389-.354-.577a308.24 308.24 0 0 0-.277-.42l-.098-.141 1.453-1.11Zm6.14 1.311.19.431.177.424c.06.14.113.28.169.423l.083.214.041.108.04.11-1.657.679-.039-.105-.04-.103-.079-.204a13.973 13.973 0 0 0-.159-.399l-.163-.39c-.056-.13-.113-.258-.17-.387l1.607-.8ZM37.271 3.672l.346.24c.113.079.223.161.334.241l.164.12.162.125c.108.083.217.164.324.25l-1.059 1.481c-.105-.083-.21-.162-.311-.24l-.152-.116-.153-.112c-.101-.073-.2-.148-.303-.219l-.307-.213.955-1.557Zm-1.15 5.131c.343.287.65.56.972.864l-1.202 1.394c-.294-.28-.577-.529-.876-.779l1.105-1.479ZM11.154 7.262l-1.19-1.413c.2-.192.401-.366.6-.543l.307-.26c.103-.089.209-.175.318-.263l1.094 1.497-.15.122c-.05.04-.098.082-.146.122l-.284.242c-.185.164-.368.324-.55.496Zm3.469 4.118c.143-.137.287-.26.426-.385.143-.12.281-.241.427-.356l1.08 1.48c-.133.104-.256.213-.383.319-.122.11-.248.218-.374.338l-1.176-1.396Zm-.265-2.948c.356-.277.696-.516 1.055-.756l.953 1.59c-.33.22-.638.437-.95.681l-1.058-1.515Zm3.784 3.231.204-.127.203-.12.102-.06.104-.057c.07-.038.14-.08.214-.118l.812 1.682c-.063.033-.123.069-.183.101l-.09.05-.089.052-.176.104-.178.11-.923-1.617ZM13.688.248l.81 1.675c-.128.066-.25.137-.372.203l-.18.101-.178.103c-.117.07-.233.137-.349.207l-.344.214-.919-1.611.392-.244.383-.225c.125-.075.252-.145.378-.215s.251-.141.38-.208Zm-.12 12.197c.263-.294.514-.56.793-.83l1.208 1.372c-.242.234-.46.466-.703.737l-1.298-1.28Zm-3.415-3.367a20.2 20.2 0 0 1 1.021-1.068l1.219 1.382c-.083.082-.166.16-.244.241l-.233.24c-.077.08-.15.162-.227.243l-.115.124-.113.127-1.308-1.289Zm5.107 5.023.08-.09.08-.087.16-.172.167-.17.042-.045.045-.043.09-.088 1.229 1.393c-.05.05-.101.096-.148.147l-.145.148c-.048.049-.093.1-.14.151l-.072.077-.07.08-1.318-1.3Zm-2.628-.487c.058-.081.119-.157.177-.235.06-.077.117-.154.178-.228l.18-.224.186-.22 1.31 1.238-.167.198-.16.2c-.055.066-.105.134-.157.202-.052.068-.106.135-.156.206l-1.391-1.137Zm4.501-12.263c.131-.053.262-.099.39-.147l.19-.07c.064-.024.128-.045.191-.067l.38-.129.386-.12.49 1.777c-.127.04-.25.08-.372.117l-.356.122c-.117.039-.231.082-.346.124-.114.043-.228.083-.342.129l-.61-1.736Zm4.274 8.248-.463-1.822.136-.038.134-.035.266-.068c.177-.04.354-.083.54-.118l.338 1.851c-.166.031-.323.071-.48.106l-.235.06-.118.03-.118.034Zm.162-6.983c.494-.091.954-.15 1.436-.202l.172 1.857a1609.438 1609.438 0 0 1-.335.038 8.58 8.58 0 0 0-.327.043l-.323.047-.326.057-.297-1.84ZM18.75 5.93c.103-.041.205-.077.305-.115l.15-.055.149-.052.3-.102.305-.096.503 1.82-.274.085-.27.092-.134.046-.134.05c-.09.035-.183.066-.275.104L18.75 5.93Zm2.797 4.225.116-.034.116-.03c.077-.019.153-.04.229-.058.153-.034.303-.071.46-.1.115.635.22 1.215.333 1.828-.145.026-.279.06-.41.09l-.195.05-.096.024-.097.028-.456-1.798ZM16.21 4.41c.224-.11.438-.217.655-.314.215-.101.432-.192.655-.288l.66 1.753c-.206.089-.404.171-.599.264-.197.088-.39.185-.595.285l-.776-1.7Zm-1.017-2.214c.495-.249.961-.463 1.471-.677l.654 1.74c-.478.2-.913.402-1.355.623l-.77-1.686Zm4.039 8.855c.283-.14.554-.267.86-.396l.654 1.736a13.5 13.5 0 0 0-.745.343l-.77-1.683ZM.372 28.253l-.074-.469c-.024-.153-.043-.305-.063-.457-.043-.302-.072-.604-.106-.916l1.783-.192c.032.296.06.58.1.86.019.141.036.282.058.423l.067.427-1.765.324Zm30.225 10.84c-.36.148-.7.266-1.043.377l-.516-1.788c.324-.105.616-.207.924-.333l.635 1.745Zm-.841-2.281-.115.046c-.037.015-.074.03-.112.043l-.22.081c-.071.027-.144.05-.215.075-.072.025-.143.05-.215.07l-.52-1.805c.065-.02.128-.042.19-.064.063-.022.126-.04.187-.064a728.264 728.264 0 0 1 .282-.106l.097-.04.64 1.764Zm.484 5.023-.52-1.8c.383-.124.726-.246 1.058-.381l.638 1.758c-.208.085-.406.157-.599.228-.096.036-.193.067-.289.1a6.47 6.47 0 0 1-.288.095Zm-1.65-4.596-.222.063-.221.057-.111.03-.114.025-.238.055-.358-1.85.203-.047c.033-.008.066-.014.099-.023l.097-.025c.064-.017.129-.032.192-.05l.192-.055.481 1.82Zm3.67 6.467c-.46.187-.881.335-1.349.486l-.523-1.813c.431-.139.823-.278 1.23-.443l.643 1.77Zm-3.049-4.124-.272.078-.265.069a51.66 51.66 0 0 1-.132.034l-.132.03-.264.06-.358-1.85.24-.055.116-.027.116-.03c.077-.02.155-.038.233-.06l.237-.068.481 1.82Zm3.888 6.39c-.52.211-1.01.385-1.533.552l-.512-1.781c.495-.16.947-.32 1.412-.51l.633 1.74Zm-1.172-7.48-.124.064c-.042.022-.084.041-.125.062l-.247.121c-.168.076-.335.157-.515.231l-.672-1.73c.16-.066.308-.138.457-.206l.22-.107.11-.054.109-.058c.272.58.52 1.11.787 1.676Zm1.276 2.72.788 1.679-.167.087-.167.083c-.11.053-.218.108-.326.159-.218.1-.431.2-.65.292l-.674-1.733c.21-.088.409-.182.607-.273l.293-.144.148-.073.148-.077Zm-2.307-4.911-.107.056-.106.052-.21.103c-.142.064-.283.133-.434.195-.24-.615-.455-1.172-.672-1.73.133-.055.258-.116.382-.171l.181-.09.09-.044.09-.047.786 1.676Zm5.154 11.007-.203.105-.201.1c-.134.065-.265.13-.398.193-.265.123-.529.246-.806.363l-.673-1.734c.265-.111.516-.229.764-.343l.366-.18.182-.09.181-.094.788 1.68Zm-3.099-6.62-.147.076-.147.073c-.097.047-.192.095-.288.14-.192.089-.38.178-.574.258l-.673-1.734c.183-.076.355-.159.528-.237l.256-.126.129-.063.128-.068.788 1.68ZM27.395 37.5c-.08.016-.16.028-.238.042l-.117.021-.117.017-.233.034-.234.028-.19-1.849.207-.024.203-.03.1-.015.1-.018c.068-.012.136-.022.204-.036l.315 1.83Zm2.064 12.079c-.152.029-.302.054-.45.08l-.219.037-.217.033c-.145.021-.288.043-.43.062l-.428.052-.191-1.857.412-.05.402-.058.2-.03.2-.035c.134-.024.269-.046.405-.072l.316 1.838Zm-2.193-4.032.37-.044.364-.053.181-.027.181-.032c.121-.021.243-.041.366-.064l.316 1.843c-.137.026-.27.048-.403.072l-.197.034-.197.03-.392.056-.398.048-.191-1.863Zm-1.959-2.327.169-.003.166-.006.326-.014.323-.021.164-.012.165-.015.153 1.862-.187.018-.183.013-.36.023-.354.015-.177.006-.176.003-.029-1.87Zm5.8 3.457-.392.111c-.13.036-.26.068-.39.102l-.194.05-.196.045c-.131.03-.264.061-.399.09l-.357-1.85c.123-.027.244-.056.364-.083l.18-.042.177-.045c.119-.03.238-.06.358-.093l.366-.104.483 1.819Zm1.785-2.616c.24-.1.467-.208.691-.311l.331-.162.165-.082.164-.086.785 1.672-.184.096-.184.091c-.122.06-.242.12-.363.177-.243.113-.484.226-.735.331l-.67-1.726Zm-2.422.26-.35.099c-.116.032-.231.06-.346.09l-.173.044-.174.04c-.116.027-.234.055-.354.08l-.357-1.85.323-.073.16-.036.157-.04c.104-.028.21-.054.314-.083l.319-.09.482 1.818Zm-3.45-1.213.33-.04.322-.046.16-.024.16-.028c.107-.02.215-.037.323-.057l.318 1.853c-.12.023-.24.043-.358.064l-.175.03-.176.026-.351.051-.36.044-.193-1.873Zm-.253-2.444.29-.034.284-.042.14-.02.14-.025c.092-.017.185-.032.279-.05l.318 1.857-.318.057-.156.027-.155.023-.312.045-.317.038-.193-1.876Zm1.042-.741c-.093.018-.186.032-.277.049l-.137.024-.137.02-.274.04-.28.034-.191-1.86.243-.03.242-.035.122-.017.122-.022c.082-.015.166-.028.25-.044l.317 1.84Zm5.383-2.175c-.081.055-.164.104-.244.154-.08.05-.16.1-.24.146l-.24.141-.242.135-.822-1.657.22-.123.214-.125c.071-.04.14-.086.21-.13.07-.043.143-.086.213-.133l.93 1.592Zm1.825-.617c.31-.259.591-.51.876-.779l1.199 1.39a19.97 19.97 0 0 1-.972.864l-1.103-1.475Zm4.317 5.786c.443-.37.839-.72 1.252-1.112l1.197 1.39c-.452.43-.886.812-1.347 1.197l-1.102-1.475Zm-1.882-4.75 1.203 1.396c-.365.346-.711.653-1.097.976l-1.107-1.482c.355-.297.671-.577 1.001-.89Zm-3.885-2.974c.266-.223.503-.432.748-.665l1.204 1.397c-.281.267-.55.504-.844.75l-1.108-1.482Zm.388-1.084c-.24.227-.468.429-.722.642l-1.106-1.48c.217-.184.416-.36.625-.557l1.203 1.395Zm6.26 7.271c-.409.389-.797.732-1.226 1.09-.371-.5-.72-.965-1.094-1.467.41-.343.773-.666 1.13-1.004l1.19 1.381Zm-4.445-5.715-1.226-1.36c.062-.06.12-.123.179-.183l.087-.089.085-.091.17-.184c.055-.063.11-.126.168-.19l1.314 1.266-.193.218-.193.209-.096.103-.098.1c-.066.067-.13.135-.197.201Zm2.504.846a23.41 23.41 0 0 0-.221.25l-.22.238c-.038.039-.074.079-.11.118l-.113.115c-.076.077-.15.156-.229.233l-1.23-1.368c.072-.07.14-.144.21-.214l.103-.105.1-.108c.065-.071.132-.141.197-.214l.194-.219 1.319 1.274Zm-3.438-3.33-.167.19-.166.178-.08.088-.084.085c-.056.056-.11.114-.167.17l-1.226-1.36c.053-.051.1-.104.15-.154l.074-.075.07-.076c.047-.052.096-.101.142-.153l.14-.16 1.314 1.267Zm6.873 6.628-.283.32c-.094.104-.189.204-.281.304l-.14.15-.143.146c-.095.097-.189.197-.287.293l-1.226-1.364c.092-.09.18-.182.268-.273l.132-.135.13-.139c.085-.092.172-.184.257-.279l.257-.29 1.316 1.267Zm-3.953-1.936c.082-.081.16-.164.238-.243l.117-.12.113-.122c.075-.081.151-.161.226-.244l.223-.253 1.318 1.27-.249.282c-.082.091-.166.18-.248.269l-.124.133-.127.13c-.085.087-.169.176-.258.263l-1.229-1.365Zm-.553 2.946c-.099.078-.198.153-.296.228l-.146.111-.147.108c-.099.071-.196.144-.296.214l-.304.21c-.33-.535-.634-1.032-.962-1.566l.287-.2c.094-.065.184-.132.274-.197l.133-.098.131-.1c.087-.068.175-.133.261-.202l1.065 1.492Zm-1.564 1.124c-.105.07-.21.134-.314.199-.104.064-.205.128-.309.188l-.309.182-.316.176c-.284-.572-.55-1.107-.83-1.674l.292-.163.283-.166c.094-.055.186-.114.28-.172.093-.058.189-.115.283-.178l.94 1.608Zm-3.667-6.283c-.069.047-.139.088-.207.13-.069.043-.135.087-.204.126l-.204.12-.207.115-.818-1.65c.252-.135.48-.276.713-.425l.927 1.584Zm3.759 9.71c.505-.275.955-.55 1.427-.852l.933 1.594c-.132.089-.264.169-.393.25-.13.08-.255.159-.382.232l-.379.223-.383.213-.823-1.66Zm-1.317-5.527c-.093.062-.187.118-.28.176-.092.058-.182.115-.274.168l-.275.162-.28.155-.816-1.646c.357-.193.68-.392 1-.597l.925 1.581Zm-1.891-3.865.208-.144c.068-.048.134-.097.2-.145l.1-.072.096-.075c.065-.05.131-.099.197-.151l1.076 1.508c-.076.06-.151.116-.225.173l-.111.085a54.54 54.54 0 0 0-.112.082c-.075.054-.149.11-.225.163l-.231.16-.973-1.584Zm3.28 2.881c-.088.07-.175.135-.261.202l-.13.098-.13.096c-.087.062-.173.127-.262.189l-.269.186-.965-1.573c.33-.223.636-.451.948-.695l1.069 1.497Zm-2.808-3.92c-.065.052-.13.1-.194.15l-.095.072-.096.07c-.063.045-.126.093-.19.138l-.196.135-.964-1.57c.239-.162.453-.324.668-.49l1.067 1.495Zm5.616 7.835c-.112.09-.224.174-.334.258l-.164.126-.166.12c-.11.08-.219.162-.331.24l-.34.235-.962-1.57c.428-.29.823-.583 1.23-.902l1.067 1.493Zm-23.21-3.037c-.37-.247-.703-.483-1.05-.753l1.06-1.517c.318.249.626.465.946.679l-.955 1.591Zm2.499-4.154a12.697 12.697 0 0 1-.778-.558l1.055-1.513c.227.177.442.327.674.483-.325.542-.63 1.05-.951 1.588Zm-4.92 5.379 1.061-1.522c.356.277.694.516 1.076.771l-.958 1.596c-.42-.28-.796-.547-1.18-.845Zm-.352 3.407-.947 1.578c-.512-.342-.99-.681-1.455-1.043l1.05-1.504c.45.35.879.654 1.352.97Zm.29-.487a22.955 22.955 0 0 1-1.325-.95l1.056-1.513c.417.325.806.599 1.22.876l-.951 1.587Zm1.821 1.09c-.123-.065-.242-.133-.361-.198l-.177-.099-.173-.101c-.115-.068-.23-.135-.346-.205l-.346-.215.92-1.611.33.205.322.19.159.093.16.089c.107.058.213.12.322.177l-.81 1.675Zm2.12-4.38c-.1-.051-.194-.106-.29-.158l-.14-.078-.139-.081-.274-.163-.273-.17.917-1.605.251.157c.083.05.167.098.25.147l.124.073.126.07c.084.046.167.094.254.14l-.807 1.669Zm2.12-4.373c-.072-.037-.142-.079-.213-.117l-.105-.058-.103-.06-.206-.122-.204-.127.913-1.598.18.112.178.105.089.052.09.05c.061.033.12.069.184.1l-.802 1.663Zm-3.047-2.217a13.007 13.007 0 0 1-.662-.691l1.296-1.28c.2.223.382.416.574.6l-1.208 1.371Zm-4.475 3.047c.313.35.61.663.927.97l-1.211 1.374-.134-.132a5.213 5.213 0 0 1-.131-.131l-.255-.262c-.084-.087-.165-.176-.248-.265a5.175 5.175 0 0 0-.124-.134l-.123-.14 1.3-1.28Zm-1.69 1.673c.349.391.679.739 1.04 1.09l-1.215 1.379c-.1-.1-.2-.194-.295-.293l-.284-.291c-.093-.097-.184-.197-.276-.295l-.138-.15-.137-.154 1.305-1.286ZM8.05 40.415c.393.44.767.833 1.163 1.217L8.01 42.997c-.11-.11-.222-.215-.327-.324l-.314-.323c-.104-.107-.205-.218-.307-.327l-.152-.165-.151-.17 1.291-1.273Zm4.655-2.114c.165.157.329.299.492.445l.253.214c.084.074.173.145.265.218l-1.092 1.495c-.099-.08-.196-.158-.29-.239l-.279-.237c-.18-.162-.361-.319-.538-.487l1.189-1.41Zm1.328.433-.13-.105-.125-.105-.245-.209c-.16-.142-.32-.282-.481-.434l1.189-1.41c.147.14.295.268.44.397.147.124.291.251.444.372l-1.092 1.494Zm-4.267 5.825-.181-.147c-.06-.049-.117-.099-.175-.147-.116-.098-.23-.194-.341-.29-.222-.197-.442-.39-.662-.599l1.187-1.406c.213.203.424.386.63.57l.313.266c.053.044.104.089.158.132l.161.13-1.09 1.49Zm7.112-9.717-.096-.078c-.032-.025-.062-.052-.093-.078l-.183-.155c-.117-.106-.238-.209-.357-.323l1.185-1.405c.105.1.21.19.314.284.106.088.208.18.318.265l-1.088 1.49Zm-1.08-.208c.126.12.252.228.375.339.126.105.248.214.38.318l-1.083 1.483-.114-.092c-.038-.03-.074-.062-.11-.092l-.216-.183c-.139-.125-.278-.245-.412-.374l1.18-1.4Zm2.584 6.692a19.252 19.252 0 0 1-1.173-.54l.77-1.687c.358.179.701.337 1.057.487l-.654 1.74Zm6.532-1.14-.282-.004c-.092-.001-.184-.007-.276-.01-.184-.005-.367-.021-.556-.032l.134-1.867c.171.01.335.026.499.03.081.002.163.007.244.008l.246.004-.01 1.871Zm-.038 4.91-.364-.006c-.12-.003-.238-.009-.355-.013l-.177-.007-.177-.011-.358-.024.134-1.868c.231.014.45.033.666.039.108.003.214.01.321.011l.321.005-.01 1.873Zm-1.647 2.976c.284.02.558.041.83.05.137.004.273.012.409.014l.412.005L24.87 50l-.454-.006c-.15-.003-.297-.01-.443-.016l-.22-.01c-.072-.003-.145-.008-.218-.013l-.44-.03.134-1.853Zm.005-5.517a3.91 3.91 0 0 1-.163-.017l-.161-.02c-.107-.013-.212-.024-.317-.041l-.313-.046-.315-.054.297-1.84c.391.072.765.119 1.144.16l-.172 1.858Zm.454-4.888a2.246 2.246 0 0 1-.12-.013l-.12-.015c-.079-.01-.157-.017-.234-.03l-.232-.034-.233-.04.296-1.84c.276.053.538.084.815.115l-.172 1.857Zm-1.027.45c.337.062.65.1.973.136l-.171 1.86a14.7 14.7 0 0 1-1.098-.155l.296-1.842Zm2.568.183.126-.002.124-.005.243-.01.242-.016.122-.008.123-.012.153 1.877-.142.014-.14.009-.275.018-.273.011-.136.005-.138.002-.029-1.883Zm-2.458 9.138c-.14-.013-.276-.032-.41-.047a12.582 12.582 0 0 1-.396-.052l-.39-.057a678.9 678.9 0 0 0-.392-.068l.298-1.846c.518.094.99.154 1.463.206l-.173 1.864Zm4.401 2.465-.227.021-.224.016-.44.029-.434.018-.218.008-.218.003-.029-1.873.21-.004.207-.007.407-.017c.134-.01.268-.018.404-.027l.203-.015.206-.019.153 1.867Zm-.61-7.314-.16.015-.16.01-.312.022-.315.012-.161.006-.165.002-.028-1.871.15-.002.148-.006.29-.011.282-.02c.047-.003.094-.005.14-.01.047-.003.093-.008.14-.012l.152 1.865Zm-.393-4.908-.122.012-.12.008-.236.016-.235.009-.117.005h-.119l-.029-1.878h.106l.104-.005.205-.008.203-.014.102-.007.104-.01.154 1.872Zm-4.697 5.192-.337 1.842c-.244-.047-.475-.103-.704-.155l-.343-.087-.171-.045-.173-.049.46-1.812.165.047.162.042c.107.027.212.055.317.08.21.047.414.097.624.137Zm-3.47 6.084-.433-.136-.42-.143c-.14-.047-.279-.098-.418-.15l-.209-.078a7.256 7.256 0 0 1-.21-.08l.613-1.742c.067.027.134.052.2.077l.199.074.196.072c.065.024.13.046.196.068l.39.132.39.123-.494 1.783Zm-.87-2.883.617-1.755c.12.049.24.09.357.135l.175.065.175.06.348.118.352.11-.497 1.797-.383-.12-.377-.128a7.04 7.04 0 0 1-.189-.065l-.19-.07c-.127-.048-.257-.094-.389-.147Zm2.179-1.823-.35-.11-.341-.116c-.057-.02-.114-.038-.17-.06-.056-.02-.113-.04-.169-.062-.113-.042-.227-.082-.341-.128l.617-1.753c.107.043.213.08.318.12.052.018.104.038.155.057l.155.053.31.105.312.098-.496 1.796Zm-.067-5.213c-.354-.15-.68-.3-1.021-.47l.767-1.68c.318.16.606.29.905.417l-.651 1.733Zm2.17-1.231.122.034.119.03c.079.02.156.042.234.06.155.035.309.073.47.104l-.338 1.852c-.185-.034-.363-.079-.54-.118l-.264-.068-.133-.034-.131-.037.462-1.823Zm-1.85 1.368.622-1.77c.08.032.158.059.235.088l.115.043.114.039.228.078.232.072-.501 1.812-.267-.083-.26-.089-.129-.045-.128-.047c-.086-.033-.174-.063-.261-.098Zm2.896-1.684c-.159-.03-.31-.068-.46-.101l-.227-.058-.115-.03a51.353 51.353 0 0 1-.116-.033l.463-1.822.102.03.101.026c.067.016.132.035.197.05.131.029.26.062.393.086l-.338 1.852Zm-2.858 7.445.185.053.182.047c.121.03.24.062.358.09.238.055.472.11.716.157l-.335 1.839c-.268-.052-.524-.113-.782-.172-.13-.031-.258-.065-.388-.098l-.196-.051-.199-.056.459-1.809Zm1.974-2.624c-.215-.04-.42-.091-.624-.137l-.307-.078a109.1 109.1 0 0 0-.154-.04l-.157-.045.465-1.826.14.04.14.036.277.07c.185.042.37.088.56.124l-.34 1.856Zm-.311-5.134-.23-.072-.223-.076c-.074-.024-.147-.052-.22-.08-.073-.027-.147-.052-.22-.082l.62-1.763c.064.027.13.049.194.073l.095.036.096.032.19.066.197.061-.5 1.805Z" fill="url(#a)"/><defs><radialGradient id="a" cx="0" cy="0" r="1" gradientUnits="userSpaceOnUse" gradientTransform="matrix(25 -5.1334 5.13344 25.0002 25 25)"><stop stop-color="#CD29FC"/><stop offset="1" stop-color="#5426FF"/></radialGradient></defs></svg>