<svg width="16" height="16" fill="none" xmlns="http://www.w3.org/2000/svg"><path d="M4.79 10.125c-.888-.396-1.968-.119-2.688.64-.921.97-1.04 2.095-1.144 3.074l-.029.269C.812 15.145.62 15.489 0 16c1.08-.088 1.47-.366 1.835-.627.248-.177.485-.346.918-.443.322-.072.594-.08.846-.088.588-.017 1.07-.031 1.843-.844.703-.74.897-1.826.47-2.738 0 .348-.15.712-.444 1.023-.448.471-.703.5-1.066.54a5.478 5.478 0 0 0-.243.03c-.509.08-1.02.3-1.278.641.196-2.07.58-2.473 1.05-2.968.241-.254.55-.394.858-.4Zm3.059 1.492a34.456 34.456 0 0 0 3.206-2.18c.073.32.345 1.64.018 2.413-.521 1.231-2.917 2.904-2.917 2.904s.142-1.24.007-2.022c-.063-.365-.225-.86-.314-1.115Z" fill="#8066FF"/><path fill-rule="evenodd" clip-rule="evenodd" d="M15.343 4.073c-2.085 4.01-8.33 7.442-8.33 7.442l-.641-.637c.402-.354.79-.711 1.127-1.047.739-.735 1.58-1.713 2.268-2.546a.762.762 0 0 0-.04-1.04.77.77 0 0 0-1.044-.039c-.837.685-1.818 1.523-2.557 2.258a25.88 25.88 0 0 0-1.052 1.122l-.64-.637S8.94.826 13.662.049c.937-.155 2.182.106 2.182.106s.262 1.24.107 2.173a5.718 5.718 0 0 1-.5 1.53c-.035.072-.071.143-.108.215Zm-1.82.773c-.032.172.154.329.277.206.772-.768.754-2.032-.04-2.823-.793-.79-2.062-.808-2.834-.039-.123.123.034.308.207.276a2.052 2.052 0 0 1 1.816.571c.498.497.69 1.18.574 1.81Z" fill="#8066FF"/><path d="M6.524 4.92a34.294 34.294 0 0 0-2.19 3.194c-.256-.088-.756-.252-1.125-.315-.785-.134-2.03.007-2.03.007s1.68-2.386 2.917-2.904c.78-.328 2.116-.053 2.428.019Zm-2.347 6.593a.303.303 0 0 1 .075-.178c.366-.444.774-.926 1.184-1.388a25.59 25.59 0 0 1 1.051-1.123C7.21 8.105 8.176 7.28 9.01 6.597c.27-.22.585.095.364.363-.686.83-1.515 1.793-2.236 2.511-.721.718-1.688 1.544-2.522 2.226-.21.172-.448.02-.439-.184Z" fill="#8066FF"/></svg>