<svg width="32" height="32" fill="none" xmlns="http://www.w3.org/2000/svg"><path d="M25.18 22.502c-.166.232-.33.44-.52.668l-.857-.792c.167-.202.32-.396.468-.603l.909.727Zm3.138.736c-.093.158-.187.306-.28.455l-.145.22-.073.111-.077.11-.928-.71.07-.102.069-.102c.044-.068.09-.135.133-.203.085-.137.172-.273.256-.418l.975.639Zm-.293 1.116.079-.113.075-.113.147-.224c.096-.152.193-.305.288-.469l.963.632c-.103.177-.209.343-.312.507l-.159.242-.08.12-.083.12-.918-.702Zm-.866-4.906c.099-.287.181-.557.26-.841l1.098.33c-.046.16-.088.314-.136.465-.045.152-.097.302-.149.458l-1.073-.412Zm2.363 1.265c-.03.086-.064.17-.096.253a8.37 8.37 0 0 1-.099.246l-.102.245-.109.247-1.038-.518.102-.23.094-.226c.032-.075.061-.151.09-.227.03-.076.06-.151.088-.229l1.07.439Zm.95 1.658-1.038-.517.113-.256.104-.25c.035-.083.067-.166.1-.25.031-.083.065-.166.096-.252l1.07.44c-.035.094-.072.186-.107.277-.035.091-.07.182-.108.27l-.112.269-.119.269Zm-.506-1.854.09-.267.021-.065.02-.066.04-.13c.055-.172.103-.346.153-.524l1.103.331c-.055.196-.107.384-.166.57-.056.187-.119.372-.184.564l-1.077-.413Zm-1.41-.533c.054-.16.107-.314.153-.47.05-.156.093-.314.14-.479l1.103.331c-.05.177-.096.347-.15.516-.051.17-.108.34-.168.515l-1.078-.413Zm-1.824.532.089-.2.083-.2.041-.1.04-.102c.026-.068.054-.137.08-.209l1.057.434c-.028.079-.059.154-.087.23l-.044.112-.046.11-.09.22-.097.217-1.026-.512Zm-1.816 7.162.684.959c-.078.062-.156.12-.233.18l-.114.087-.116.084c-.076.056-.152.112-.229.166l-.231.16-.62-1.007.224-.155c.073-.05.143-.103.214-.155l.106-.077.104-.08.21-.162Zm1.13-3.232c.214-.259.409-.506.6-.772l.908.726c-.21.292-.416.555-.65.838l-.858-.792Zm.169 2.078c.067-.066.13-.133.193-.197l.094-.097.091-.097.18-.196.178-.2.843.813-.197.222-.195.212-.098.104-.1.103c-.067.068-.133.138-.203.207l-.786-.874Zm2.529-1.17a16.35 16.35 0 0 1-.716.92c-.3-.275-.57-.526-.855-.789.239-.288.455-.562.665-.856l.906.724Zm-3.287-2.624.906.725c-.19.265-.376.5-.58.746l-.855-.79c.19-.23.363-.45.53-.681Zm-1.422-3.561.067-.153.063-.151c.022-.05.04-.1.06-.151l.03-.076.015-.039.014-.038 1.055.431c-.011.032-.023.062-.035.092a98.1 98.1 0 0 1-.035.09l-.034.087a1.71 1.71 0 0 1-.035.086l-.07.168-.073.164-1.022-.51Zm3.038-.659-.06.212-.014.052-.016.05-.03.101c-.04.134-.086.264-.13.398l-1.071-.411c.086-.25.158-.487.226-.731l1.095.33Zm-3.122-.083c-.008.025-.018.05-.028.075l-.029.075c-.019.049-.037.098-.058.145l-.06.144-.063.143-1.029-.513c.02-.042.038-.084.056-.125l.052-.124c.018-.042.034-.084.05-.126l.025-.064a1.32 1.32 0 0 0 .024-.065l1.06.435Zm2.788 1.149c-.025.07-.052.136-.078.202l-.038.099-.04.096-.08.194-.086.193-1.031-.514.077-.174.072-.174.037-.088.034-.089c.023-.06.048-.12.07-.181l1.063.436Zm-2.147-2.03a32.728 32.728 0 0 1 .038-.16c.012-.053.025-.105.035-.158l.033-.16.03-.168 1.12.22-.035.188-.038.183c-.011.06-.026.12-.04.179l-.02.09-.022.088-1.101-.303Zm-.25.819c.036-.106.07-.207.101-.31.033-.102.06-.206.093-.317l1.102.33c-.068.25-.139.478-.218.71-.372-.143-.715-.275-1.078-.413Zm.042-1.531-.029.16-.032.155c-.01.051-.023.101-.034.152l-.018.076-.018.076-1.1-.304.015-.066.016-.067.03-.131.027-.134.025-.137 1.118.22Zm7.346 1.445-.054.297-.06.288c-.019.096-.041.191-.063.287-.023.095-.044.192-.07.29l-1.105-.305c.024-.092.044-.183.065-.273.021-.09.042-.179.06-.268l.055-.267.05-.27 1.122.221Zm-5.43 2.314c-.128.268-.252.51-.393.757l-.969-.606.05-.088a2.46 2.46 0 0 0 .047-.086l.09-.171c.03-.057.058-.114.086-.17l.042-.083.04-.085 1.008.532Zm-.516.981c-.073.126-.148.244-.223.363l-.115.176-.06.089-.06.089-.922-.704.056-.08.053-.08.105-.16c.067-.108.135-.215.2-.326l.966.633Zm-2.534-1.663c-.053.094-.11.18-.165.27l-.085.13-.044.065-.045.066-.919-.702.04-.058.039-.058.075-.114c.047-.077.095-.151.14-.23l.964.631Zm.869 1.452-.927-.709.047-.068.046-.068.088-.135c.057-.091.115-.181.17-.277l.973.638c-.063.108-.128.21-.192.312l-.1.153-.051.077-.054.077Zm-.136.183a10 10 0 0 1-.45.58l-.855-.79a9 9 0 0 0 .4-.514l.905.724Zm-1.19-.958c-.127.18-.254.34-.383.495l-.846-.78c.12-.146.228-.282.334-.431l.896.716Zm5.993 2.554.068-.122.066-.12.128-.242c.043-.08.083-.162.124-.244l.061-.124.06-.126 1.015.534c-.18.38-.354.715-.546 1.053l-.976-.61Zm-5.15-3.957-.034.073-.036.071-.07.14c-.025.046-.05.091-.073.137a53.072 53.072 0 0 1-.075.136l-.986-.615c.047-.08.088-.16.13-.238l.06-.12.031-.06.03-.063 1.023.54Zm3.865 3.16.063-.113a3.92 3.92 0 0 0 .06-.11l.117-.22c.038-.073.074-.146.11-.218l.055-.11.053-.11 1.009.532c-.16.336-.319.642-.497.956l-.97-.607Zm.138-1.05c-.148.31-.287.578-.44.849l-.974-.608c.076-.132.143-.262.211-.389l.097-.192.048-.096.046-.098 1.012.534Zm-.15-2.96c.018-.073.034-.146.05-.218.01-.036.017-.071.026-.107l.022-.106.044-.211.039-.215 1.127.222-.044.24-.049.234c-.015.078-.033.155-.051.232-.019.078-.035.156-.056.234l-1.109-.305Zm-2.517 1.554-.04.085-.041.082c-.028.054-.054.11-.082.163-.03.054-.058.108-.087.163l-.022.041-.023.042-.047.083-.983-.614c.026-.048.055-.095.08-.144l.076-.143.074-.146.037-.075.036-.076 1.022.54Zm-.77-2.243-.044.156c-.013.052-.03.1-.045.15-.029.098-.062.193-.094.29l-1.076-.412c.028-.088.058-.172.083-.257.027-.084.05-.17.076-.258l1.1.331Zm3.51-.44c.025-.149.041-.293.06-.437l.025-.217.011-.11.01-.11 1.142.11-.01.12-.013.117-.025.235-.032.238c-.005.04-.01.082-.017.123l-.02.127-1.131-.196Zm2.738-.613-.012.137-.014.133-.03.263c-.023.174-.043.347-.073.527l-1.135-.195.02-.127.017-.125.033-.244.026-.24.013-.12.01-.12 1.145.111Zm-4.4 1.354a35.803 35.803 0 0 1 .046-.193c.015-.063.03-.126.042-.189l.038-.187.034-.186 1.11.218-.04.216-.043.21c-.013.069-.03.137-.046.206l-.023.103a2.917 2.917 0 0 1-.026.103l-1.092-.301Zm4.612-.234.022-.14.019-.138.036-.27.029-.269.014-.134.012-.135 1.136.11-.013.153-.016.148c-.01.099-.021.196-.033.292-.025.193-.048.383-.08.577l-1.126-.194Zm-4.687-1.557-.008.097-.01.094-.021.185c-.017.122-.03.242-.051.362l-1.123-.193c.02-.11.031-.218.046-.325l.018-.163.01-.082.006-.085 1.133.11Zm-1.482-.147a68.27 68.27 0 0 1-.006.081l-.01.08-.016.157c-.015.104-.026.208-.044.314l-1.123-.194c.016-.092.025-.182.038-.272l.015-.136.008-.07.005-.07 1.133.11Zm1.75.947c.021-.128.036-.256.054-.383l.02-.192.011-.097.008-.098 1.137.11-.009.106-.011.105-.023.21-.028.213c-.009.072-.02.146-.033.22l-1.127-.194Zm2.69 1.781.058-.247c.019-.081.038-.162.054-.242l.05-.242.044-.245 1.11.218-.051.28-.055.266a9.753 9.753 0 0 1-.058.258c-.02.085-.038.17-.06.255l-1.093-.3Zm1.886-2.464.016-.28c.005-.091.007-.182.01-.272l.005-.136.002-.136.004-.277H32l-.003.302c-.001.05-.001.1-.003.149l-.005.147c-.004.098-.006.195-.011.293l-.018.294c-.394-.03-.759-.056-1.142-.084Zm-1.49-.103.014-.248c.005-.082.007-.163.01-.245l.004-.123c.002-.042.002-.083.002-.125l.003-.256h1.14c0 .094-.002.186-.003.277 0 .045 0 .09-.002.135l-.005.134-.01.267-.016.268-1.138-.084Zm-1.489-.118.014-.224.008-.22.004-.108.002-.108.002-.22h1.147l-.002.244-.002.12-.004.119-.01.238-.014.244-1.145-.085Zm-3.305-.88-.002.162-.001.08-.003.08-.006.158-.01.159-1.143-.085.01-.14c0-.046.003-.092.004-.137l.003-.069v-.069l.003-.14h1.145Zm1.464.747-1.143-.084.01-.167.006-.164.003-.082.001-.082.002-.167h1.147l-.003.189v.093l-.004.093-.007.185-.012.186Zm1.524-.748c0 .073-.002.145-.003.216v.106l-.005.106-.008.215-.013.221-1.137-.084.012-.197.007-.195.004-.096.001-.097.003-.194h1.14Zm-26.383.17c.003.38.021.734.048 1.099l-1.137.096c-.03-.406-.048-.78-.051-1.183l1.14-.012Zm2.985-.034c.002.306.017.59.038.88l-1.133.096c-.024-.333-.04-.638-.042-.963l1.137-.013Zm.414-3.435c-.019.075-.039.148-.056.221l-.05.216c-.016.07-.03.141-.044.211-.015.07-.03.14-.042.21l-1.11-.23c.062-.326.126-.624.21-.942l1.092.314Zm-1.428-.41c-.086.328-.153.635-.216.967l-1.115-.232c.07-.37.145-.709.235-1.05l1.096.315Zm1.18 9.699a3.48 3.48 0 0 1-.05-.112l-.05-.11a7.17 7.17 0 0 1-.094-.22l-.092-.22-.087-.225 1.06-.448c.03.073.057.144.084.213l.084.203c.027.067.057.132.086.197l.043.098.045.097-1.028.527ZM1.61 22.537a9.831 9.831 0 0 1-.24-.543l-.112-.269-.106-.273L2.217 21l.1.256.103.248c.034.084.07.166.107.249l.056.126c.019.042.038.085.059.128l-1.033.53Zm2.212-2.544-.042-.116-.038-.115c-.026-.076-.052-.152-.076-.227-.047-.153-.095-.304-.137-.46l1.098-.344c.04.144.083.28.125.418.021.068.045.136.068.206l.036.106.038.107-1.072.425Zm-.63-.811c.046.166.096.322.144.477.025.078.05.154.077.232l.039.116.042.117-1.074.425-.047-.128-.043-.128c-.028-.085-.057-.169-.083-.253-.053-.169-.106-.337-.155-.514l1.1-.344Zm-1.1 1.494c-.368.145-.711.28-1.075.425l-.05-.142-.048-.14-.092-.278c-.057-.186-.116-.371-.17-.566l1.1-.344c.051.185.107.36.16.532l.085.256.043.128.046.128Zm4.446-19.08c.317-.246.619-.459.936-.67l.608 1.014c-.313.209-.588.404-.87.623l-.674-.967Zm-5.383 7.3.11-.283.114-.273c.037-.09.077-.18.116-.268l.06-.133.029-.067.031-.066 1.023.525-.03.063-.027.063c-.02.042-.038.084-.056.126-.037.083-.074.165-.108.249l-.104.251-.101.26-1.057-.448Zm4.891-3.121-.164.195-.154.192c-.052.062-.1.126-.148.19-.048.062-.096.124-.142.189l-.887-.726c.054-.075.11-.146.164-.217.055-.071.108-.142.163-.21l.164-.203.168-.2.836.79ZM13.5 30.582c.366.067.695.11 1.044.147l-.11 1.192a83.183 83.183 0 0 1-.288-.033 6.383 6.383 0 0 1-.282-.036l-.277-.04-.277-.048.19-1.182Zm1.477-1.39c.163.01.32.023.477.027.078.003.156.007.235.009l.236.003-.006 1.196-.26-.004a7.24 7.24 0 0 1-.255-.009l-.127-.005-.128-.008-.258-.017.086-1.193Zm.231-3.127c.13.008.253.019.374.022.06.002.12.006.18.006l.177.003-.007 1.201c-.07 0-.137-.002-.205-.003-.067 0-.134-.005-.2-.007-.134-.003-.267-.015-.404-.024l.085-1.198Zm5.105 4.074c.349-.112.67-.226.994-.358l.406 1.117c-.364.148-.703.268-1.07.386l-.33-1.145ZM7.15 23.515l-.841.793-.155-.184-.147-.183c-.05-.06-.096-.122-.143-.183-.047-.062-.096-.123-.142-.188l.892-.73c.044.062.091.12.135.179.045.058.088.115.133.17.045.056.09.11.133.166l.135.16Zm-2.884 1.248c.054.076.11.147.165.219.055.072.109.143.165.212l.167.208.175.207-.85.802-.193-.23a442.17 442.17 0 0 1-.182-.225c-.06-.075-.118-.15-.176-.226-.058-.076-.116-.151-.173-.23l.902-.737Zm4.137-4.748-.971.62c-.128-.224-.24-.434-.345-.648l1.01-.547c.099.199.196.38.306.575Zm-2.956 3.78c.049.068.1.132.148.197.05.064.098.128.148.19l.15.187.158.186-.852.804-.173-.205-.164-.203-.16-.206c-.052-.07-.107-.138-.159-.21l.904-.74Zm-2.672-1.477c.171.348.338.656.512.962l-.97.62a18.245 18.245 0 0 1-.551-1.036l1.01-.546Zm.82.769a16.39 16.39 0 0 1-.499-.936l1.014-.549c.15.308.3.585.459.862l-.975.623Zm3.172-2.93c.115.234.231.451.36.675l-.98.626a13.523 13.523 0 0 1-.398-.75l1.018-.551Zm2.96 8.78.498-1.09c.145.07.283.14.425.203.14.067.285.128.438.193l-.423 1.125a15.065 15.065 0 0 1-.938-.432Zm2.255-5.42-.514 1.065c-.055-.029-.107-.06-.16-.088a1.51 1.51 0 0 0-.078-.043l-.077-.046-.153-.09-.153-.095.585-1.025.139.087.137.08c.023.014.045.028.068.04l.069.038c.045.025.09.052.137.076Zm-2.409 5.75c.328.165.633.305.963.444l-.422 1.122c-.18-.077-.353-.15-.523-.23-.172-.078-.34-.162-.514-.248l.496-1.087Zm1.64-1.354c-.145-.062-.283-.12-.421-.185-.139-.062-.276-.13-.422-.203l.498-1.09c.261.132.505.243.767.354l-.423 1.124Zm7.768 2.578.263-.06c.043-.01.086-.019.128-.03l.127-.032c.084-.022.167-.042.25-.066l.252-.071.309 1.163-.28.08c-.092.025-.183.048-.273.071l-.135.034-.136.032-.276.063-.23-1.184ZM7.516 14.236c.012-.11.022-.215.037-.318l.01-.077.011-.077.024-.153 1.129.208-.022.136c-.007.044-.012.089-.018.133-.013.088-.02.178-.032.272l-1.14-.124Zm.167-2.359-.029.079-.026.078-.052.155c-.031.104-.065.208-.094.316l-1.097-.343c.033-.122.07-.238.106-.355.018-.059.039-.117.058-.176l.03-.089.033-.09 1.07.425ZM4.31 13.004l-.035.22c-.012.073-.02.145-.03.217-.02.143-.034.287-.05.436l-1.137-.123c.018-.165.033-.325.056-.483l.016-.118c.005-.04.01-.08.017-.119l.037-.238 1.126.208ZM2.092 9.668l-.047.133L2 9.933c-.03.087-.06.173-.086.26-.054.173-.109.345-.158.526l-1.098-.343c.055-.2.114-.388.172-.575l.092-.278.047-.14.05-.14 1.072.425Zm-.73 2.798-.044.28c-.014.091-.025.182-.038.272-.025.18-.042.358-.062.542L.08 13.437c.023-.207.043-.404.07-.597.013-.097.024-.193.04-.29l.046-.29 1.126.206Zm3.172 1.448c.016-.145.03-.285.05-.425l.014-.106.015-.106.034-.216 1.124.207-.03.197c-.011.064-.018.129-.027.192-.019.127-.03.254-.045.38l-1.135-.123Zm-1.85.115c-.024.338-.04.652-.042.988l-1.139-.013c.003-.376.02-.723.046-1.071l1.136.096Zm4.784 1.04c0-.223.012-.424.027-.635l1.132.096a8.101 8.101 0 0 0-.023.553l-1.136-.014Zm-.322-.665a10.08 10.08 0 0 0-.028.663l-1.14-.014c0-.258.014-.494.032-.746l1.136.097ZM4.7 12.807c.055-.29.113-.56.188-.84l1.095.314a10.91 10.91 0 0 0-.17.758L4.7 12.807ZM2.504 6.109c.051-.085.104-.168.155-.25a446.353 446.353 0 0 1 .155-.24c.053-.08.104-.16.159-.24l.167-.241.923.72-.158.229c-.052.075-.1.15-.15.224l-.072.112-.07.112-.141.225-.968-.651Zm2.519 1.698c.042-.07.085-.137.127-.204l.063-.1.064-.098c.043-.065.085-.13.13-.195l.135-.195.92.718-.126.183c-.042.06-.08.12-.12.18l-.058.088-.057.09-.113.182-.965-.649Zm3.243.07-.126.149-.12.149c-.04.049-.078.1-.116.15-.038.05-.077.099-.114.15l-.892-.728c.042-.059.086-.115.13-.171.043-.056.085-.113.13-.167l.131-.164c.045-.054.09-.108.137-.162l.84.793Zm.996 1.793c.03-.045.064-.086.096-.128.032-.041.063-.083.096-.123l.096-.12.1-.117.845.797-.09.105-.083.106c-.03.034-.055.07-.083.105-.027.036-.055.07-.081.108l-.896-.733Zm-2.494.515-1.018-.55c.13-.265.258-.505.397-.748l.979.626c-.13.227-.244.44-.358.672Zm-.073 1.05.069-.175.07-.17c.023-.056.048-.11.072-.166l.037-.082.018-.042.02-.041 1.031.528c-.012.025-.024.05-.034.075l-.034.075c-.022.05-.044.098-.064.148-.02.05-.04.099-.062.149l-.059.152-1.064-.45Zm1.709-.163c.093-.19.186-.364.296-.556l.97.62a9.218 9.218 0 0 0-.256.483l-1.01-.547Zm-4.428-2.06-.027.058-.026.058-.051.116a9.321 9.321 0 0 0-.1.229l-.094.23-.091.233-1.05-.444.1-.26.104-.25c.034-.083.07-.164.107-.246.036-.082.071-.164.11-.246l1.018.522Zm1.332 1.64.079-.202.081-.197c.027-.065.056-.13.084-.194.03-.064.057-.13.088-.194l1.027.527c-.028.059-.053.119-.08.177-.025.058-.051.116-.075.175l-.074.176-.07.181c-.375-.158-.707-.3-1.06-.448Zm-.739-2.776c-.168.294-.317.573-.463.87L3.094 8.2c.167-.34.327-.637.503-.945l.972.622Zm3.253 4.734c.029-.106.061-.206.092-.306l.049-.148a326.71 326.71 0 0 0 .052-.149l1.064.423-.023.064-.022.064-.042.128c-.026.086-.055.172-.08.265l-1.09-.34ZM6.75 22.387l-.123-.178c-.04-.058-.078-.118-.117-.176l-.058-.088-.056-.09-.112-.18.955-.641.105.169.051.082.053.08.104.157.108.154-.91.71Zm-1.208.937-.137-.199a6.04 6.04 0 0 1-.13-.196l-.065-.098-.063-.1-.126-.202.966-.649c.038.064.077.125.115.186.02.03.038.06.057.091l.06.09c.039.059.077.119.118.178l.125.18c-.322.253-.616.482-.92.719Zm3.603-2.806a9.802 9.802 0 0 1-.343-.523l.966-.65.072.116.035.057.037.055.074.112.08.114-.92.72Zm-.438-.693c-.108-.19-.205-.37-.298-.56l1.005-.544c.085.173.168.327.258.486l-.965.618Zm.476 3.08-.067-.065-.032-.032-.032-.033-.126-.13-.123-.13a1.294 1.294 0 0 0-.062-.067l-.06-.069.83-.819c.153.171.296.322.447.467l-.775.878Zm-1.76.356-.138-.165-.132-.164c-.044-.053-.085-.11-.128-.164-.042-.056-.085-.11-.126-.168l.893-.73c.038.054.078.104.117.156.04.05.077.101.117.15l.118.147.121.143-.842.795Zm1.115-1.048-.12-.142-.114-.143c-.039-.046-.075-.095-.112-.143-.036-.048-.075-.096-.11-.146l.903-.74c.032.046.067.088.099.13.033.044.064.087.098.128l.101.125.107.126-.852.805Zm-4.02-6.051c-.022-.295-.036-.57-.038-.863l1.138-.012c.002.276.015.524.034.778l-1.135.097Zm2.468 3.622-.02-.044-.02-.043-.038-.086c-.026-.057-.05-.114-.074-.17a407.32 407.32 0 0 1-.07-.17l-.067-.173 1.058-.447.061.158.064.152c.02.05.042.099.064.148.01.025.022.05.033.074l.016.038.018.037-1.025.526ZM3.18 17.543l-.039-.245-.033-.239c-.022-.157-.037-.314-.055-.476l1.133-.122c.017.153.03.3.052.445.01.072.018.144.03.216l.033.215-1.121.206Zm-.48-.918c.019.173.035.34.059.503l.016.122.008.061.01.06.038.245-1.12.206c-.015-.091-.03-.18-.043-.27a4.243 4.243 0 0 1-.02-.133l-.017-.132c-.025-.177-.042-.354-.063-.54l1.132-.122Zm2.19 1.744a12.092 12.092 0 0 1-.186-.837l1.094-.228c.052.272.107.522.17.756l-1.077.31Zm2.599-2.462a9.383 9.383 0 0 1-.027-.64l1.145-.012c0 .191.01.37.023.555l-1.141.097Zm.529 2.419c-.01-.026-.02-.052-.028-.077l-.026-.077-.05-.15a190.687 190.687 0 0 0-.067-.222l-.021-.075 1.079-.337c.025.095.054.182.08.269l.042.127.021.063.023.062-1.053.417Zm-1.667-.371a10.488 10.488 0 0 1-.163-.725l1.094-.228c.043.224.088.43.144.643l-1.075.31Zm-.3.327c.034.128.073.25.11.372l.061.182.03.091.034.092-1.066.423-.038-.106-.035-.104-.067-.204-.063-.202-.015-.05-.015-.051-.028-.102 1.091-.34ZM2.89 17.91c.063.332.13.645.219.98l-1.09.314a15.37 15.37 0 0 1-.238-1.064l1.109-.23Zm4.878-.363a8.89 8.89 0 0 1-.138-.615l1.117-.233c.036.186.072.355.12.532l-1.1.316ZM17.57 0l.261.032.256.037.127.019.127.022c.085.015.17.029.257.046l-.204 1.18c-.08-.016-.159-.028-.237-.042l-.118-.02-.117-.018-.235-.034-.239-.03L17.57 0Zm2.212 5.407c.115.047.223.1.33.148l.158.077.078.039.077.04-.502 1.072a149.276 149.276 0 0 0-.144-.074l-.14-.068c-.095-.043-.188-.088-.286-.128l.43-1.106ZM18.475 6.58c.199.064.385.13.572.206L18.642 7.9a6.619 6.619 0 0 0-.495-.179l.328-1.14Zm2.446-4.095c.146.062.283.127.42.19.069.032.136.066.205.1l.103.05.104.054-.511 1.09-.095-.05-.095-.047c-.063-.03-.124-.061-.187-.09-.125-.058-.249-.117-.38-.172l.436-1.125Zm-4.726.564.104.001.103.004.201.008.2.014.1.007.103.01-.098 1.193-.093-.009-.093-.006-.182-.013-.182-.007-.09-.004h-.092l.02-1.198Zm-.058 3.149h.08l.077.004.153.006.15.01.075.005.075.007-.098 1.185-.067-.006-.067-.005-.132-.009-.131-.005-.066-.002h-.067l.018-1.19Zm-1.01-3.113c.142-.01.276-.02.41-.024.067-.003.134-.007.2-.007l.204-.003.006 1.182-.192.002c-.063.001-.125.005-.186.007l-.092.004c-.03 0-.06.003-.09.005l-.176.012-.084-1.178Zm2.885 1.757c.06.014.12.028.178.04l.086.021.086.022c.057.015.115.029.171.045l.172.049-.302 1.139-.153-.044-.152-.04-.076-.02-.077-.017-.157-.036.224-1.159Zm5.528 3.374c.16.193.303.375.448.577l-.913.73a8.958 8.958 0 0 0-.397-.51l.862-.797Zm2.997-1.082.068.098c.023.033.044.067.066.1l.129.196c.082.132.167.264.248.404l-.974.64c-.076-.13-.152-.249-.227-.369l-.117-.178-.06-.09-.063-.091.93-.71Zm3.93.839.122.276.113.27a46.44 46.44 0 0 1 .188.477l.025.071c-.368.15-.71.29-1.061.435l-.025-.067a25.795 25.795 0 0 0-.025-.067l-.05-.13c-.034-.086-.067-.172-.103-.255l-.104-.25-.11-.247 1.03-.513ZM23.854 2.35l.22.153c.073.051.144.104.214.155l.106.077.104.08c.068.053.138.105.206.16l-.677.948c-.067-.054-.134-.104-.2-.154l-.097-.075a288.45 288.45 0 0 0-.097-.07c-.065-.048-.129-.096-.194-.14l-.197-.137.611-.997Zm-.737 3.284c.22.184.416.358.622.553l-.769.892c-.188-.179-.37-.339-.56-.498.245-.33.471-.631.707-.947ZM7.139 4.648l-.762-.905c.13-.122.257-.234.385-.347l.196-.167a8.16 8.16 0 0 1 .204-.168l.7.958-.096.078-.094.079-.182.154c-.118.105-.235.208-.35.318Zm2.22 2.635c.092-.087.184-.166.273-.246.092-.077.18-.155.273-.228l.692.947c-.086.067-.164.137-.245.204-.079.071-.16.14-.24.217l-.753-.894Zm-.17-1.886c.228-.178.446-.331.676-.484l.61 1.017a9.96 9.96 0 0 0-.609.436l-.676-.97Zm2.422 2.068.13-.082.131-.076.065-.039.067-.037.137-.075.52 1.077c-.04.02-.08.043-.118.064a164.395 164.395 0 0 0-.114.065l-.113.067-.114.07-.59-1.034ZM8.761.158l.517 1.072c-.081.043-.16.088-.237.131l-.116.064-.113.066-.224.132-.22.138L7.78.729l.25-.155.246-.145c.08-.048.16-.093.242-.137.08-.045.16-.09.243-.134Zm-.078 7.807c.169-.189.33-.359.508-.531l.774.878a8.66 8.66 0 0 0-.451.471l-.83-.818ZM6.498 5.81c.216-.242.421-.459.653-.684l.78.885c-.052.053-.106.102-.155.154l-.15.153-.145.156-.073.08-.073.081-.837-.825Zm3.268 3.215.051-.058.052-.056.103-.11.106-.109.027-.028.028-.028.059-.056.786.891c-.032.032-.065.062-.095.094l-.092.095c-.031.031-.06.065-.09.097l-.046.049-.045.05-.844-.831Zm-1.682-.312c.037-.052.076-.1.114-.15.038-.05.075-.099.114-.146l.115-.144.12-.141.838.793-.108.127-.102.128c-.035.041-.067.085-.1.129-.034.043-.068.086-.1.132l-.89-.728ZM10.965.864c.084-.033.168-.063.25-.093l.122-.046.122-.042.243-.083c.082-.025.164-.05.247-.077l.314 1.138-.239.075-.227.077c-.075.025-.149.053-.222.08-.073.028-.146.053-.219.083l-.39-1.112Zm2.735 5.28-.296-1.166.087-.025.086-.022.17-.044c.114-.025.227-.053.346-.076l.216 1.185c-.106.02-.207.046-.307.068l-.15.038-.076.02-.076.021Zm.104-4.47c.317-.058.61-.096.919-.13l.11 1.19a2.662 2.662 0 0 0-.108.011l-.106.013c-.07.008-.14.016-.21.027l-.206.03-.209.037-.19-1.178ZM12 3.796c.066-.027.131-.05.195-.073l.096-.036.096-.033.191-.065c.065-.02.13-.04.196-.062l.322 1.164-.176.055-.172.06c-.029.01-.057.018-.086.029l-.086.032c-.058.022-.117.042-.176.066L12 3.796ZM13.79 6.5l.075-.022.074-.019.146-.037c.098-.022.194-.046.294-.064l.213 1.17c-.092.016-.178.039-.262.057l-.124.032-.062.016-.062.017-.292-1.15Zm-3.415-3.677c.143-.07.28-.139.418-.2.138-.066.277-.124.42-.186l.422 1.123c-.131.056-.258.11-.383.168-.126.057-.25.12-.381.183l-.496-1.088Zm-.652-1.417c.317-.159.616-.296.942-.433l.419 1.113a13.63 13.63 0 0 0-.868.4c-.17-.376-.327-.717-.493-1.08Zm2.585 5.667c.181-.09.355-.17.55-.253l.42 1.111a8.245 8.245 0 0 0-.478.22l-.492-1.078ZM.238 18.082l-.047-.3c-.016-.098-.027-.196-.04-.293-.028-.193-.047-.386-.069-.586l1.142-.123c.02.19.038.371.063.551.013.09.023.18.038.27l.043.273-1.13.208Zm19.344 6.938a9.16 9.16 0 0 1-.668.241l-.33-1.144c.208-.068.395-.133.592-.214l.406 1.117Zm-.538-1.46-.073.029c-.024.01-.048.02-.072.028l-.14.052c-.047.017-.093.031-.139.047-.046.016-.091.032-.137.046l-.334-1.156c.042-.012.083-.027.123-.04l.12-.042c.039-.015.078-.03.119-.044l.06-.024.063-.025.41 1.129Zm.31 3.215-.333-1.153a9.55 9.55 0 0 0 .677-.244l.408 1.126c-.133.054-.26.1-.383.146-.062.023-.124.042-.185.064-.061.02-.122.042-.184.06Zm-1.056-2.942-.143.04c-.047.014-.094.024-.141.037l-.071.018c-.024.007-.049.011-.073.017l-.152.035-.23-1.184.13-.03.064-.014.062-.017c.041-.01.082-.02.123-.032l.123-.035.308 1.165Zm2.349 4.139c-.295.12-.564.214-.864.31l-.334-1.16c.275-.088.526-.177.786-.283l.412 1.133Zm-1.952-2.64c-.059.018-.117.034-.174.05-.057.016-.114.03-.17.044l-.084.022-.084.02-.17.038-.229-1.184.153-.035.075-.017.075-.02c.049-.013.099-.024.149-.038l.151-.043.308 1.164Zm2.488 4.09a13.39 13.39 0 0 1-.98.353 260 260 0 0 1-.328-1.14c.316-.101.606-.204.904-.325l.404 1.112Zm-.75-4.788-.08.042-.079.04-.158.077c-.107.049-.215.1-.33.148l-.43-1.108c.102-.042.198-.088.293-.131l.14-.069.07-.035.07-.036.504 1.072Zm.817 1.742.505 1.074-.108.056-.106.053c-.07.034-.14.07-.21.102-.139.064-.275.128-.416.187l-.43-1.11c.134-.056.261-.116.388-.174l.188-.092a80.306 80.306 0 0 0 .189-.096Zm-1.477-3.144-.068.036-.068.034-.134.066c-.091.04-.182.085-.278.124l-.43-1.107c.085-.035.165-.074.244-.11l.116-.057.058-.028.057-.03.503 1.072Zm3.299 7.045-.13.067-.129.064-.254.124c-.17.079-.339.157-.516.232-.149-.382-.287-.738-.43-1.11.169-.07.33-.146.488-.22.079-.037.157-.076.235-.114l.116-.058.116-.06.504 1.075Zm-1.983-4.237-.095.05-.093.046-.185.09c-.123.056-.244.113-.367.165l-.431-1.11c.117-.05.227-.102.338-.152l.164-.08.082-.041.082-.043.505 1.075ZM17.533 24l-.153.027-.075.013-.075.011-.149.022-.15.018-.12-1.183.132-.016.13-.02.064-.009.064-.011c.043-.008.087-.014.13-.023L17.533 24Zm1.32 7.73c-.097.019-.193.035-.287.052l-.14.024-.14.02c-.092.014-.183.028-.275.04l-.273.033-.123-1.188.264-.032.257-.037.129-.02.128-.022.259-.046.202 1.177Zm-1.403-2.58.237-.028.233-.034.116-.017.116-.02.234-.042.202 1.18c-.087.017-.173.03-.258.046l-.126.021-.126.02-.25.036-.255.03-.123-1.192Zm-1.253-1.49h.108l.106-.005.208-.009.207-.014.105-.007.106-.01.098 1.192-.12.011-.117.009-.23.015-.227.01-.113.003-.113.002-.018-1.197Zm3.711 2.213-.25.072c-.084.023-.167.043-.25.064l-.124.032-.125.03-.256.057-.229-1.184c.08-.017.157-.036.234-.053l.114-.027.114-.029c.076-.02.152-.038.23-.06l.233-.066.31 1.164Zm1.143-1.674c.154-.065.299-.133.442-.2l.212-.103.106-.052.105-.055.502 1.07-.118.061-.117.059-.233.113c-.156.072-.31.145-.47.212l-.43-1.105Zm-1.55.166-.224.064-.222.057a87.434 87.434 0 0 1-.222.054l-.226.052-.229-1.184.207-.047.102-.024.1-.026c.068-.017.135-.033.202-.052l.204-.058.308 1.164Zm-2.208-.776.21-.025.207-.03.102-.015.103-.018.207-.037.203 1.186a6.473 6.473 0 0 1-.229.04 2.406 2.406 0 0 1-.112.02l-.113.017-.225.033-.23.028-.123-1.199Zm-.162-1.564.186-.022.181-.027.09-.013.089-.016.179-.031.204 1.188-.204.036-.1.018-.1.014-.198.03-.204.024-.123-1.2Zm.667-.474-.178.031-.087.015-.088.013-.175.026-.18.021c-.04-.403-.08-.78-.122-1.19l.156-.019.155-.022.078-.011.078-.014c.053-.01.106-.018.16-.029l.203 1.178Zm3.445-1.392c-.052.035-.105.066-.156.098-.052.032-.102.065-.154.094l-.153.09-.155.087-.526-1.061.14-.078.137-.081c.046-.026.09-.055.135-.082.045-.029.091-.056.136-.086l.596 1.018Zm1.168-.395c.198-.166.378-.326.56-.499l.768.89c-.204.193-.4.367-.622.553l-.706-.944Zm2.763 3.703c.283-.236.537-.461.8-.712l.767.89c-.289.275-.567.52-.862.766l-.705-.944Zm-1.205-3.04.77.893a14.5 14.5 0 0 1-.702.625l-.708-.948c.227-.19.43-.37.64-.57Zm-2.486-1.903c.17-.143.322-.277.479-.426l.77.894c-.18.17-.352.323-.54.48-.25-.333-.475-.636-.71-.948Zm.248-.694c-.153.145-.3.274-.462.41l-.708-.947a8.9 8.9 0 0 0 .4-.356l.77.893Zm4.007 4.654c-.262.248-.51.467-.785.696l-.7-.938c.263-.22.495-.426.723-.643l.762.884Zm-2.845-3.658-.785-.871c.04-.039.077-.079.115-.117l.056-.057.054-.058.108-.118.108-.122.84.81c-.04.048-.082.095-.123.14-.04.046-.082.09-.123.134l-.062.066-.062.064c-.042.043-.083.087-.126.129Zm1.602.54-.141.16-.141.153-.07.076a48.3 48.3 0 0 1-.073.073l-.146.15-.788-.876c.047-.045.09-.092.135-.137l.066-.067.063-.069c.043-.046.085-.09.127-.137l.124-.14.844.815Zm-2.2-2.13-.107.121-.106.114c-.017.02-.035.038-.052.056l-.053.055c-.036.036-.07.073-.107.109l-.784-.87.096-.099.047-.048.045-.049.09-.098.09-.102.841.811Zm4.398 4.242-.18.204c-.06.067-.121.131-.18.195l-.09.096-.091.094c-.061.062-.12.125-.184.187l-.785-.873c.06-.057.115-.117.172-.174l.084-.087.083-.089.165-.178.165-.187.841.812Zm-2.53-1.24c.053-.051.103-.104.153-.155a645.518 645.518 0 0 0 .147-.154l.145-.157.143-.162.843.814-.159.18-.159.172-.08.085-.08.083c-.055.056-.109.113-.165.168l-.787-.874Zm-.353 1.886c-.063.05-.127.098-.19.146l-.093.071-.094.07c-.063.045-.125.092-.19.136l-.194.135-.616-1.003.184-.127c.06-.042.117-.085.175-.127a101.218 101.218 0 0 0 .17-.127c.055-.043.111-.084.166-.129l.682.955Zm-1.001.72c-.067.045-.135.085-.201.127-.066.04-.131.082-.198.12l-.197.117-.203.112-.531-1.071.187-.104.181-.107c.06-.035.12-.072.18-.11.059-.037.12-.073.18-.114l.602 1.03Zm-2.347-4.022c-.044.03-.089.057-.132.084-.044.027-.087.055-.13.08l-.131.077-.133.074-.523-1.056c.16-.087.306-.177.456-.272l.593 1.013Zm2.406 6.215c.323-.176.611-.352.913-.546l.597 1.02c-.084.057-.17.109-.251.16a9.52 9.52 0 0 1-.245.15l-.242.142-.245.136-.527-1.062Zm-.843-3.538c-.06.04-.12.076-.179.113-.059.037-.117.074-.176.108l-.176.103-.179.1-.522-1.054a9.49 9.49 0 0 0 .64-.382l.592 1.012Zm-1.21-2.473.133-.092c.043-.03.085-.063.128-.093l.063-.046.062-.048.126-.097.689.965c-.048.039-.097.075-.144.111l-.071.055-.072.052c-.048.035-.095.07-.144.104l-.148.102-.623-1.013Zm2.099 1.844-.168.129-.082.063-.084.06c-.055.041-.11.083-.167.122l-.172.12-.618-1.007c.211-.143.407-.29.607-.445l.684.958Zm-1.797-2.509-.124.096-.061.046-.061.045c-.041.029-.081.06-.122.088l-.126.087-.617-1.005c.153-.104.29-.207.428-.314l.683.957Zm3.594 5.014c-.072.058-.143.111-.214.166l-.105.08a46.3 46.3 0 0 1-.106.078c-.07.05-.14.103-.212.153l-.217.15-.616-1.005c.274-.186.526-.373.787-.577l.683.955ZM9.857 25.432c-.237-.159-.45-.31-.672-.482l.678-.971c.203.159.4.297.605.434l-.61 1.019Zm1.599-2.66a8.138 8.138 0 0 1-.498-.356l.675-.968c.145.113.283.21.432.309l-.61 1.016Zm-3.149 3.443.68-.974c.227.178.443.33.688.494l-.613 1.022c-.269-.18-.51-.35-.755-.542Zm-.225 2.181-.606 1.01a15.575 15.575 0 0 1-.931-.667l.671-.963c.288.224.563.418.866.62Zm.185-.312c-.299-.2-.568-.39-.847-.608l.675-.968c.267.208.516.383.781.56-.21.353-.406.679-.609 1.016Zm1.166.698c-.079-.041-.155-.085-.231-.127-.038-.02-.076-.042-.113-.063l-.111-.065-.221-.13-.222-.138.59-1.032.21.131.206.122.102.06.102.056c.069.038.136.077.207.114l-.519 1.072Zm1.356-2.803c-.063-.033-.124-.068-.184-.101l-.09-.05-.09-.052-.175-.104-.175-.109.587-1.027.161.1.16.094.08.047.08.044c.054.03.107.061.162.09l-.516 1.068Zm1.358-2.799c-.047-.023-.091-.05-.136-.075l-.068-.037-.066-.039-.132-.077a105.08 105.08 0 0 1-.13-.082l.584-1.022.115.071.114.067.057.034.058.032c.039.02.077.044.117.064l-.513 1.064Zm-1.95-1.419a8.322 8.322 0 0 1-.424-.442l.829-.82c.128.143.245.267.367.385l-.773.877Zm-2.864 1.95c.2.224.39.425.593.621l-.775.88a229.295 229.295 0 0 1-.17-.169l-.163-.167c-.054-.056-.105-.113-.159-.17l-.08-.086a2.158 2.158 0 0 0-.078-.089l.832-.82ZM6.25 24.782c.223.25.434.473.666.698l-.778.882c-.064-.063-.128-.124-.19-.187l-.18-.187c-.06-.062-.118-.125-.177-.189l-.089-.095a82.384 82.384 0 0 1-.087-.099l.835-.823Zm-1.099 1.084c.252.281.491.533.744.778l-.77.874c-.07-.07-.141-.137-.209-.207l-.201-.207c-.067-.069-.13-.14-.196-.21l-.098-.105-.096-.109.826-.814Zm2.979-1.354c.105.1.21.192.315.285l.162.138c.054.047.11.092.17.14l-.7.956a7.01 7.01 0 0 1-.185-.153l-.178-.152c-.116-.103-.232-.204-.345-.311l.761-.903Zm.85.278-.083-.067-.08-.068-.157-.133c-.102-.091-.205-.18-.308-.278l.761-.903c.094.09.189.172.281.255.095.08.187.16.285.237l-.699.957Zm-2.73 3.728-.117-.094-.112-.095c-.074-.062-.147-.123-.218-.186-.142-.125-.283-.249-.424-.382l.76-.9c.137.13.271.247.403.364l.2.17c.034.029.067.058.102.085l.103.084-.698.954Zm4.55-6.22-.06-.049c-.021-.016-.04-.033-.06-.05l-.117-.099c-.075-.068-.152-.134-.229-.207l.759-.9c.067.065.135.123.2.183.069.056.134.115.204.17l-.696.953Zm-.69-.132c.08.077.161.146.24.217.08.067.159.137.243.203l-.693.95-.073-.06-.07-.059-.139-.117c-.089-.08-.178-.156-.264-.239l.755-.895Zm1.653 4.282c-.26-.11-.5-.22-.75-.345.17-.37.325-.712.493-1.08.229.115.448.216.676.312l-.419 1.113Zm4.18-.729-.18-.002c-.059-.001-.117-.005-.176-.007-.118-.003-.235-.014-.356-.02l.086-1.195c.11.006.214.016.319.018.052.002.104.006.156.006l.158.002-.006 1.198Zm-.023 3.142-.233-.003c-.077-.002-.152-.006-.228-.009l-.113-.004-.113-.007-.23-.016.087-1.195c.148.009.288.02.426.025.069.002.137.006.205.007l.206.003-.007 1.199Zm-1.055 1.905c.182.012.358.026.532.032.087.003.174.008.261.009l.264.004L15.917 32l-.29-.004c-.096-.002-.19-.007-.284-.01l-.14-.006c-.047-.002-.094-.006-.14-.009l-.282-.018.085-1.187Zm.004-3.53a2.34 2.34 0 0 1-.105-.012l-.103-.012c-.068-.009-.136-.016-.202-.027l-.201-.03c-.067-.01-.134-.022-.201-.034l.19-1.178c.25.047.489.077.732.103l-.11 1.19Zm.29-3.13a53.837 53.837 0 0 1-.153-.018c-.05-.005-.1-.01-.15-.018l-.149-.022-.149-.026.19-1.177c.177.034.345.054.521.074l-.11 1.188Zm-.657.288c.216.04.416.065.623.088l-.11 1.19a9.371 9.371 0 0 1-.702-.099l.19-1.179Zm1.644.118a386.479 386.479 0 0 0 .16-.005l.155-.006.155-.01.078-.005.079-.008.098 1.201-.091.009-.09.006-.176.012-.174.007c-.03 0-.058.002-.088.003l-.088.001-.018-1.205Zm-1.574 5.848c-.09-.008-.176-.02-.262-.03-.085-.01-.17-.02-.253-.033l-.25-.037-.25-.043.19-1.182c.331.061.633.1.936.132l-.11 1.193Zm2.817 1.578-.145.013c-.048.005-.096.007-.144.01l-.281.02-.278.01-.14.006-.139.002-.018-1.2.134-.001.133-.005.26-.011.258-.017.13-.01.132-.012.098 1.195ZM17 27.257l-.103.01-.101.006-.201.014-.202.008-.103.004-.105.001-.018-1.198a409.687 409.687 0 0 0 .19-.005l.186-.007.181-.012.09-.006.089-.009.097 1.194Zm-.252-3.141-.078.007a.995.995 0 0 1-.077.005l-.15.01a69.869 69.869 0 0 0-.226.01h-.076l-.018-1.202h.067l.067-.004.13-.005.13-.009.066-.004.067-.006.098 1.198Zm-3.006 3.323-.215 1.179c-.156-.03-.304-.066-.451-.1l-.22-.056-.11-.028-.11-.031.295-1.16.105.03.104.026.202.052c.134.03.266.062.4.088Zm-2.22 3.893-.278-.087-.27-.091a8.76 8.76 0 0 1-.266-.096l-.134-.05a4.531 4.531 0 0 1-.134-.052l.392-1.114.128.05.127.046.126.047.125.043.25.085.25.078-.317 1.142Zm-.558-1.844.395-1.124c.077.031.154.058.229.087l.112.04.112.04.223.075.225.07-.318 1.15c-.083-.025-.165-.05-.245-.076l-.241-.082c-.04-.014-.081-.027-.121-.042l-.122-.045c-.081-.03-.165-.06-.249-.093Zm1.395-1.168-.224-.07-.218-.074-.109-.038-.108-.04c-.072-.027-.145-.053-.218-.082l.394-1.122c.069.027.137.051.204.076l.1.037.099.034.197.068.2.062-.317 1.15Zm-.043-3.336a10.845 10.845 0 0 1-.653-.3l.49-1.076c.204.102.389.186.58.267l-.417 1.11Zm1.39-.788.077.022.076.02.15.038c.1.022.197.047.301.066l-.217 1.186c-.118-.022-.232-.05-.345-.076l-.17-.043-.084-.022a26.65 26.65 0 0 1-.084-.024l.295-1.167Zm-1.185.876.398-1.133c.05.02.101.038.15.056l.074.028.073.025.146.05.149.046-.321 1.16-.171-.054-.166-.056-.083-.029-.082-.03c-.055-.021-.111-.04-.167-.063Zm1.853-1.078c-.101-.019-.198-.043-.295-.064l-.145-.038-.073-.018-.074-.022.296-1.166.066.02.064.016.126.032c.084.018.166.04.252.055l-.217 1.185Zm-1.829 4.765.119.034.116.03c.078.02.154.04.23.058.152.035.302.07.457.1l-.214 1.177c-.171-.033-.335-.072-.5-.11l-.249-.063-.125-.032-.127-.036.293-1.158Zm1.264-1.68c-.138-.025-.269-.058-.4-.087a91.96 91.96 0 0 0-.196-.05l-.1-.026a2.028 2.028 0 0 0-.1-.028l.298-1.169.09.026.09.023.177.045c.118.027.236.056.358.079l-.217 1.188Zm-.2-3.285-.146-.046-.143-.049c-.048-.015-.094-.033-.141-.05-.047-.018-.095-.034-.141-.053l.396-1.129c.042.018.084.031.125.047l.06.023.062.02.122.043.126.039-.32 1.155Z" fill="#DDD9F2"/></svg>